<?xml version="1.0" encoding="UTF-8"?>
<svg version="1.1" xmlns="http://www.w3.org/2000/svg" width="2000" height="2000">
<path d="M0 0 C660 0 1320 0 2000 0 C2000 660 2000 1320 2000 2000 C1340 2000 680 2000 0 2000 C0 1340 0 680 0 0 Z " fill="#FEFEFE" transform="translate(0,0)"/>
<path d="M0 0 C6.59233156 30.34657445 11.21512276 60.93507632 15.66796875 91.65625 C15.78328949 92.45154114 15.89861023 93.24683228 16.01742554 94.06622314 C16.56445552 97.86804463 17.09335835 101.67099465 17.58447266 105.48046875 C17.67449051 106.17700562 17.76450836 106.87354248 17.85725403 107.59118652 C18.09660279 109.46329637 18.33037118 111.3361173 18.5637207 113.20898438 C18.8470002 115.94709417 18.8470002 115.94709417 20 118 C20.21503174 117.33282959 20.43006348 116.66565918 20.65161133 115.97827148 C27.81514443 93.98015343 36.02822245 72.64053614 50 54 C50.75023437 52.99710937 51.50046875 51.99421875 52.2734375 50.9609375 C62.81494024 37.5343919 76.63193269 25.77328817 94 23 C96.40107614 22.81949952 98.59101475 22.83940098 101 23 C99.96510122 28.71763731 98.92014953 34.43308677 97.8515625 40.14453125 C95.36976569 53.55570194 93.2445537 66.96149701 91.51342773 80.48999023 C90.54613915 88.01456779 89.47753956 95.51162061 88.296875 103.00561523 C84.73824523 125.60205885 82.02608483 148.30256226 79.24005127 171.00488281 C78.43247459 177.56500264 77.60208343 184.12100584 76.72265625 190.671875 C68.0391062 255.55850053 59.86158099 321.55504348 57.33862305 387.00244141 C57.05912249 394.19873067 56.60595265 401.37705794 56.125 408.5625 C50.8830238 488.2110534 50.8830238 488.2110534 50 568 C54.66071739 562.30879851 59.31998833 556.61655353 63.95458984 550.90405273 C65.03171151 549.57696396 66.11027376 548.25104368 67.18994141 546.92602539 C69.58413077 543.98663484 71.96642012 541.04285703 74.3046875 538.05859375 C96.33480372 510.16763529 127.21491994 486.93871762 162.921875 481.390625 C178.61375597 479.65762482 193.76963738 481.05412766 209 485 C210.11761719 485.28875 211.23523437 485.5775 212.38671875 485.875 C236.05847401 492.95440344 252.76632738 509.74915568 264.46875 531.03125 C266 534 266 534 267 537 C269.21320105 538.59585992 269.21320105 538.59585992 271.9375 540.125 C277.94106494 543.82369436 282.97102555 548.07471575 288 553 C288.62648438 553.59039063 289.25296875 554.18078125 289.8984375 554.7890625 C298.2171632 563.33363595 304.16148362 575.80256249 304.09765625 587.73828125 C304.09282227 589.33833008 304.09282227 589.33833008 304.08789062 590.97070312 C304.07951172 592.07349609 304.07113281 593.17628906 304.0625 594.3125 C304.05798828 595.43462891 304.05347656 596.55675781 304.04882812 597.71289062 C304.03707313 600.4753151 304.02064077 603.23762998 304 606 C300.72223608 605.40682257 297.70827966 604.61761623 294.59375 603.44140625 C280.58256838 598.25907508 268.4161194 595.87052696 253.4375 595.6875 C252.39634033 595.66953369 251.35518066 595.65156738 250.2824707 595.63305664 C231.34222832 595.65543934 218.58429099 603.67670278 205.49902344 616.54052734 C204.16283724 617.84145912 202.79067177 619.10520178 201.4140625 620.36328125 C188.34794755 632.60483554 179.1735061 648.23978718 171 664 C170.56478027 664.82419434 170.12956055 665.64838867 169.68115234 666.49755859 C152.89920943 698.36452972 141.0838543 732.86780363 129.55737305 766.92425537 C113.49475109 814.3816431 93.82024147 862.38259793 64 903 C63.4858252 903.70205566 62.97165039 904.40411133 62.44189453 905.12744141 C56.21321784 913.57516603 49.76387019 921.65502506 42.55859375 929.2890625 C40.08117312 931.91399367 37.69429064 934.60092296 35.3125 937.3125 C31.46830541 941.58458197 27.41131343 945.32783713 23 949 C22.16339844 949.73605469 21.32679688 950.47210937 20.46484375 951.23046875 C-15.90267673 982.69562746 -61.60747419 996.97990424 -108.36328125 1004.13671875 C-109.57717529 1004.33378418 -110.79106934 1004.53084961 -112.04174805 1004.73388672 C-114.36305951 1005.10872546 -116.68885467 1005.45714321 -119.01879883 1005.77392578 C-127.07967247 1007.09787474 -130.76678288 1009.87443617 -136 1016 C-146.91136396 1025.07825481 -160.27913471 1031.61171786 -174 1035 C-174.64018066 1035.17587646 -175.28036133 1035.35175293 -175.93994141 1035.53295898 C-182.50012349 1037.20535181 -188.87887643 1037.34446749 -195.625 1037.3125 C-196.77202393 1037.31048584 -197.91904785 1037.30847168 -199.10083008 1037.30639648 C-206.65959129 1037.21726896 -213.59807355 1036.57628596 -220.94921875 1034.75390625 C-224.31003369 1033.92338476 -227.54941015 1033.30275608 -231 1033 C-233.22987296 1034.69366701 -233.22987296 1034.69366701 -234.5234375 1036.28515625 C-242.0188639 1044.99016204 -252.25322455 1052.7030171 -263.37011719 1055.99926758 C-270.89296838 1058.45796483 -270.89296838 1058.45796483 -275.99707031 1064.35864258 C-277.35525162 1067.82051487 -278.31113393 1071.37192733 -279.18539429 1074.98297119 C-279.95515434 1078.15895431 -280.84935502 1081.29564537 -281.73796082 1084.44006348 C-282.18560014 1086.02775897 -282.62703693 1087.61721649 -283.06221008 1089.20837402 C-286.08034189 1100.17073458 -290.46952556 1110.58493835 -295 1121 C-295.3515918 1121.81082031 -295.70318359 1122.62164063 -296.06542969 1123.45703125 C-304.29771062 1142.20614955 -314.92628835 1159.05469237 -329 1174 C-329.57363281 1174.63808594 -330.14726563 1175.27617188 -330.73828125 1175.93359375 C-337.03405981 1182.68014404 -344.41624966 1187.23129724 -353.1875 1190 C-360.08346065 1192.69803351 -362.06240677 1197.73357887 -365.02734375 1204.0234375 C-377.39439257 1230.00989452 -402.98453962 1243.05226771 -428 1254 C-429 1252 -429 1252 -428.47094727 1250.21240234 C-428.17244873 1249.51066895 -427.8739502 1248.80893555 -427.56640625 1248.0859375 C-427.24736328 1247.32539062 -426.92832031 1246.56484375 -426.59960938 1245.78125 C-426.25736328 1244.9871875 -425.91511719 1244.193125 -425.5625 1243.375 C-425.22412109 1242.57320312 -424.88574219 1241.77140625 -424.53710938 1240.9453125 C-423.69833222 1238.96060036 -422.85004755 1236.97991125 -422 1235 C-422.6084375 1235.53367187 -423.216875 1236.06734375 -423.84375 1236.6171875 C-436.46767589 1247.3475245 -461.70791892 1267 -479 1267 C-478.41864968 1258.74070392 -477.22848815 1250.61998062 -475.84326172 1242.46264648 C-475.49537925 1240.41023888 -475.15551554 1238.3566079 -474.81640625 1236.30273438 C-473.13021807 1226.26043614 -473.13021807 1226.26043614 -472 1224 C-473.10859375 1224.32355469 -474.2171875 1224.64710937 -475.359375 1224.98046875 C-480.33824272 1226.21861725 -485.13882284 1226.34313921 -490.25 1226.3125 C-491.17441895 1226.30976074 -492.09883789 1226.30702148 -493.05126953 1226.30419922 C-500.05523414 1226.19735284 -506.33863897 1225.22407005 -513 1223 C-514.41515512 1222.59879623 -515.83161608 1222.20213511 -517.25 1221.8125 C-518.61125 1221.4103125 -518.61125 1221.4103125 -520 1221 C-519.33021695 1216.95503569 -517.25293831 1213.72886378 -515.18359375 1210.265625 C-514.80767593 1209.62759949 -514.43175812 1208.98957397 -514.04444885 1208.33221436 C-512.84681591 1206.30199912 -511.64227516 1204.27598337 -510.4375 1202.25 C-509.62258736 1200.87136527 -508.80812894 1199.49246193 -507.99414062 1198.11328125 C-506.0013443 1194.73905207 -504.00234412 1191.36857133 -502 1188 C-503.08804932 1188.01514648 -504.17609863 1188.03029297 -505.29711914 1188.04589844 C-514.02098779 1187.93776319 -522.44581992 1184.14739298 -530 1180 C-528.33438497 1175.66729256 -525.12553843 1172.8647559 -521.875 1169.6875 C-520.99702759 1168.81919556 -520.99702759 1168.81919556 -520.10131836 1167.93334961 C-516.42087886 1164.3179158 -512.65593572 1160.84036473 -508.72265625 1157.5 C-506.00694189 1155.13529634 -503.51382421 1152.57666982 -501 1150 C-501.90621094 1149.64808594 -502.81242188 1149.29617188 -503.74609375 1148.93359375 C-511.46345801 1145.80581543 -517.66689474 1142.51463191 -524 1137 C-525.010625 1136.236875 -526.02125 1135.47375 -527.0625 1134.6875 C-527.701875 1134.130625 -528.34125 1133.57375 -529 1133 C-529 1132.34 -529 1131.68 -529 1131 C-527.48828125 1129.625 -527.48828125 1129.625 -525.3125 1128 C-524.48363281 1127.37480469 -523.65476562 1126.74960938 -522.80078125 1126.10546875 C-521.41439453 1125.06326172 -521.41439453 1125.06326172 -520 1124 C-519.04480469 1123.25363281 -518.08960938 1122.50726562 -517.10546875 1121.73828125 C-515.56826172 1120.53751953 -515.56826172 1120.53751953 -514 1119.3125 C-513.46616699 1118.89129883 -512.93233398 1118.47009766 -512.38232422 1118.03613281 C-509.1962823 1115.56126918 -505.9571335 1113.31013645 -502.52734375 1111.18359375 C-492.51949011 1105.15687783 -492.51949011 1105.15687783 -487.375 1095.0625 C-487.15585937 1093.88558594 -486.93671875 1092.70867187 -486.7109375 1091.49609375 C-483.18941937 1074.17873813 -466.90763279 1058.27974632 -455 1046 C-454.2575 1045.22914062 -453.515 1044.45828125 -452.75 1043.6640625 C-448.36719235 1039.19565314 -443.74979707 1035.07125463 -439 1031 C-437.55753906 1029.72382813 -437.55753906 1029.72382813 -436.0859375 1028.421875 C-426.16185641 1019.69238688 -415.6573261 1011.80755665 -405 1004 C-404.36594238 1003.53352051 -403.73188477 1003.06704102 -403.07861328 1002.58642578 C-388.87949214 992.16839642 -374.13020285 982.49914308 -359.1875 973.1875 C-358.31762451 972.63489502 -357.44774902 972.08229004 -356.55151367 971.51293945 C-352.60062888 969.04097954 -348.79564649 966.81685128 -344.44140625 965.13671875 C-338.87877318 962.88842704 -334.49680062 960.85666663 -331.61230469 955.3515625 C-328.88777062 948.56480156 -327.00724409 941.53497053 -325.05078125 934.49755859 C-322.29530181 925.32585821 -318.05881537 916.65442207 -314 908 C-313.57493164 907.08943848 -313.14986328 906.17887695 -312.71191406 905.24072266 C-303.14533762 884.95223831 -291.73685279 865.74577106 -278 848 C-278.60513428 848.06856201 -279.21026855 848.13712402 -279.83374023 848.20776367 C-302.16881344 850.60825215 -323.46569729 849.1211051 -343 837 C-341.41467191 832.44435939 -339.00996919 828.68524231 -336.375 824.6875 C-335.95476562 824.04232422 -335.53453125 823.39714844 -335.1015625 822.73242188 C-334.07161759 821.15239276 -333.03634372 819.57583953 -332 818 C-332.70495605 818.14622803 -333.40991211 818.29245605 -334.13623047 818.44311523 C-337.38142967 819.11315186 -340.62817927 819.77536746 -343.875 820.4375 C-345.53789063 820.78264648 -345.53789063 820.78264648 -347.234375 821.13476562 C-367.45590644 825.23854701 -388.89437143 826.07030589 -409 821 C-410.22203125 820.73316406 -411.4440625 820.46632813 -412.703125 820.19140625 C-426.99448198 816.82785466 -439.95590762 810.32421072 -452 802 C-450.63986419 798.85208743 -449.21946401 797.08636177 -446.5234375 794.984375 C-445.853125 794.45585938 -445.1828125 793.92734375 -444.4921875 793.3828125 C-443.79351563 792.84398437 -443.09484375 792.30515625 -442.375 791.75 C-441.31539062 790.91855469 -441.31539062 790.91855469 -440.234375 790.0703125 C-438.49468917 788.70677496 -436.74990519 787.35038055 -435 786 C-435.78834229 785.98541748 -436.57668457 785.97083496 -437.38891602 785.95581055 C-474.12904357 785.20144241 -510.09365617 781.60015472 -541 760 C-536.97626356 755.03729904 -532.69344521 750.7402046 -527.8125 746.625 C-527.19697266 746.09261719 -526.58144531 745.56023438 -525.94726562 745.01171875 C-521.38829486 741.12943162 -521.38829486 741.12943162 -518 740 C-518 739.34 -518 738.68 -518 738 C-519.0415625 737.91363281 -520.083125 737.82726563 -521.15625 737.73828125 C-547.73898637 735.25113574 -571.75779348 724.72464316 -590 705 C-588.54741409 702.09482818 -586.63150015 701.83380634 -583.65234375 700.6171875 C-582.57275391 700.17246094 -581.49316406 699.72773437 -580.38085938 699.26953125 C-578.67639648 698.57923828 -578.67639648 698.57923828 -576.9375 697.875 C-575.79732422 697.40707031 -574.65714844 696.93914063 -573.48242188 696.45703125 C-570.65735819 695.29863694 -567.82986554 694.14660251 -565 693 C-565.80594604 692.73932739 -565.80594604 692.73932739 -566.62817383 692.47338867 C-596.53982753 682.66824355 -619.98652458 669.1322249 -638 643 C-634.31265242 640.54176828 -631.30300029 639.98757384 -627 639 C-629.79736294 637.13509137 -632.65004421 635.64309245 -635.64794922 634.13330078 C-656.67301358 623.43407378 -672.62380459 609.19379857 -681.1171875 586.78515625 C-682 584 -682 584 -682 581 C-674.08 580.67 -666.16 580.34 -658 580 C-659.85625 578.906875 -661.7125 577.81375 -663.625 576.6875 C-687.40901143 562.2647292 -708.13233251 540.65139807 -715 513 C-715 512.01 -715 511.02 -715 510 C-706.75 510 -698.5 510 -690 510 C-691.629375 508.72125 -693.25875 507.4425 -694.9375 506.125 C-705.16375306 497.69489651 -712.00269417 488.67081346 -718 477 C-718.38414062 476.29230469 -718.76828125 475.58460938 -719.1640625 474.85546875 C-722.30197616 468.12508384 -722.36186993 457.94994457 -719.98046875 451.04296875 C-719.49513672 450.03169922 -719.49513672 450.03169922 -719 449 C-716.36 448.67 -713.72 448.34 -711 448 C-711.61875 447.41605469 -711.61875 447.41605469 -712.25 446.8203125 C-727.9390946 431.62150211 -743.8997754 409.06291909 -745.1328125 386.578125 C-745.11297203 380.66566379 -744.69947356 374.87058166 -744 369 C-739.59185274 370.38374954 -735.47259068 372.08163188 -731.2890625 374.0390625 C-730.67606293 374.32478119 -730.06306335 374.61049988 -729.43148804 374.90487671 C-727.49454784 375.80853068 -725.55975656 376.71668169 -723.625 377.625 C-722.30352544 378.24248725 -720.98191214 378.85967767 -719.66015625 379.4765625 C-716.43849336 380.98094748 -713.21874023 382.48937009 -710 384 C-710.34667725 383.56357178 -710.69335449 383.12714355 -711.05053711 382.67749023 C-730.37739811 358.21937799 -748.17148687 329.45534797 -745 297 C-744.11572448 292.19134846 -742.65569864 287.59752034 -741 283 C-737.36020757 284.34414222 -734.23944724 285.98202174 -730.98046875 288.08203125 C-730.04009766 288.68466797 -729.09972656 289.28730469 -728.13085938 289.90820312 C-727.15955078 290.53662109 -726.18824219 291.16503906 -725.1875 291.8125 C-723.26449313 293.04844196 -721.34131883 294.28412345 -719.41796875 295.51953125 C-718.04390869 296.40439209 -718.04390869 296.40439209 -716.64208984 297.30712891 C-713.11312837 299.56824689 -709.56001543 301.78815609 -706 304 C-706.21615967 303.4831665 -706.43231934 302.96633301 -706.6550293 302.43383789 C-719.01424668 272.7027803 -728.35731507 239.47002629 -715.84375 208.1015625 C-714.95600764 206.04073202 -713.98934633 204.01402647 -713 202 C-704.59315769 208.91229256 -696.94961873 216.61124794 -689.890625 224.88671875 C-685.804197 229.45439963 -681.363305 233.69922644 -677 238 C-675.99893105 238.99892991 -674.99833472 239.99833749 -674 241 C-674.2165625 239.70255859 -674.2165625 239.70255859 -674.4375 238.37890625 C-678.44317588 211.20150811 -675.81369084 186.51559618 -666 161 C-665.34 161 -664.68 161 -664 161 C-662.46630859 163.23364258 -662.46630859 163.23364258 -660.6484375 166.39453125 C-660.31754623 166.96461914 -659.98665497 167.53470703 -659.64573669 168.12207031 C-658.54876874 170.01507978 -657.46208993 171.91380361 -656.375 173.8125 C-655.60982863 175.13615863 -654.84378565 176.45931376 -654.0769043 177.78198242 C-652.89212605 179.82553854 -651.70785625 181.86936861 -650.52622986 183.91474915 C-646.67496475 190.57937595 -642.74904182 197.1979264 -638.8125 203.8125 C-631.9356175 215.39089855 -625.13543318 227.0128309 -618.37182617 238.65771484 C-616.93211257 241.11591244 -615.46977146 243.55967583 -614 246 C-613.98541748 245.351521 -613.97083496 244.70304199 -613.95581055 244.03491211 C-613.47040919 224.66173779 -610.38355424 207.57645397 -605 189 C-604.34 189 -603.68 189 -603 189 C-601.21540013 192.6912069 -599.43149579 196.38274906 -597.64807129 200.07452393 C-597.00512643 201.40514771 -596.36197701 202.73567268 -595.71862793 204.06610107 C-589.32526809 217.28758838 -589.32526809 217.28758838 -586.25390625 223.81640625 C-574.43867825 248.91000578 -561.83045671 273.59504562 -547.55664062 297.38330078 C-545.5558961 300.74653475 -543.61755109 304.14349375 -541.6796875 307.54321289 C-536.55411737 316.51936757 -531.12043818 325.24703306 -525.41357422 333.86425781 C-523.96804739 336.04827658 -522.5325878 338.23869613 -521.09765625 340.4296875 C-505.37795545 364.32965182 -488.31647385 387.75974472 -468.95703125 408.86328125 C-467.20488515 410.77630304 -465.50299234 412.72015283 -463.8125 414.6875 C-454.42613117 425.42098658 -444.63235483 435.50479542 -434 445 C-433.02339493 445.90862185 -432.0494498 446.82011067 -431.078125 447.734375 C-424.25731391 454.13885528 -417.13080153 459.99788134 -409.70410156 465.68554688 C-408.11043796 466.91481405 -406.53493855 468.16752969 -404.9609375 469.421875 C-389.33888344 481.77419682 -372.44578013 492.42810023 -355 502 C-354.14277344 502.47115234 -353.28554688 502.94230469 -352.40234375 503.42773438 C-330.8741418 515.16326804 -308.38366496 524.79725019 -285.8125 534.3125 C-285.12889404 534.60148163 -284.44528809 534.89046326 -283.7409668 535.1882019 C-281.81473118 536.00079976 -279.88636321 536.80806704 -277.95703125 537.61328125 C-276.85335205 538.07516846 -275.74967285 538.53705566 -274.61254883 539.01293945 C-272.15364554 540.11781039 -272.15364554 540.11781039 -270 540 C-270.31453125 539.23300781 -270.6290625 538.46601562 -270.953125 537.67578125 C-283.78948606 504.38630271 -281.11566806 467.65824803 -271 434 C-270.67 433.34 -270.34 432.68 -270 432 C-265.32894208 433.55701931 -261.91294315 436.08447373 -258 439 C-258.18175781 438.47792969 -258.36351562 437.95585938 -258.55078125 437.41796875 C-265.77183633 416.27323822 -268.38832047 394.75761914 -268.375 372.5 C-268.37758316 371.39410522 -268.37758316 371.39410522 -268.38021851 370.26586914 C-268.37785308 361.3489664 -267.81822208 352.7626169 -266 344 C-258.12105545 345.39799016 -250.61312555 347.54184347 -243 350 C-243.31453125 349.195625 -243.6290625 348.39125 -243.953125 347.5625 C-246.92063669 339.41078113 -248.83879423 331.3757713 -250.25 322.8125 C-250.41274414 321.82830078 -250.57548828 320.84410156 -250.74316406 319.83007812 C-252.41976024 309.12976367 -253.17986917 298.51439703 -253.125 287.6875 C-253.12089111 286.6876709 -253.11678223 285.6878418 -253.11254883 284.65771484 C-253.00875148 270.81137133 -251.64357948 257.58367571 -249 244 C-246.26951538 245.27782216 -243.99594754 246.66593672 -241.671875 248.58203125 C-240.73045654 249.35305176 -240.73045654 249.35305176 -239.77001953 250.13964844 C-239.10341309 250.69168945 -238.43680664 251.24373047 -237.75 251.8125 C-236.32555568 252.98051125 -234.9010754 254.14847865 -233.4765625 255.31640625 C-232.7434082 255.91984863 -232.01025391 256.52329102 -231.25488281 257.14501953 C-227.55321344 260.19019968 -223.8401755 263.22132432 -220.125 266.25 C-219.44147461 266.81050049 -218.75794922 267.37100098 -218.05371094 267.94848633 C-214.70861531 270.74394455 -214.70861531 270.74394455 -211 273 C-211.26554688 271.79988281 -211.53109375 270.59976562 -211.8046875 269.36328125 C-217.75204752 241.68107481 -219.70427623 212.89420943 -214 185 C-213.76724365 183.85966309 -213.76724365 183.85966309 -213.52978516 182.69628906 C-211.61837638 173.58933229 -209.172434 164.7579428 -206 156 C-201.51363739 156 -200.88362903 156.48778244 -197.5078125 159.1484375 C-196.63640625 159.82519531 -195.765 160.50195312 -194.8671875 161.19921875 C-193.96226562 161.91722656 -193.05734375 162.63523437 -192.125 163.375 C-183.90579584 169.82071517 -175.53359708 175.98078027 -167 182 C-166.98541748 180.95360352 -166.97083496 179.90720703 -166.95581055 178.82910156 C-166.35712531 139.02803553 -166.35712531 139.02803553 -163 124 C-162.8134082 123.14116211 -162.62681641 122.28232422 -162.43457031 121.39746094 C-158.78344251 105.05735797 -153.06239883 89.57334915 -147 74 C-146.34 74 -145.68 74 -145 74 C-143.61483414 76.07774878 -142.36026151 78.14685235 -141.125 80.3125 C-140.31453636 81.69780795 -139.50193151 83.08186481 -138.6875 84.46484375 C-138.25308594 85.20331543 -137.81867187 85.94178711 -137.37109375 86.70263672 C-135.02354518 90.63611821 -132.57677485 94.50590429 -130.125 98.375 C-129.62532715 99.16406738 -129.1256543 99.95313477 -128.61083984 100.76611328 C-123.46044356 108.87844096 -118.23939156 116.94495116 -113 125 C-112.98018066 124.29617188 -112.96036133 123.59234375 -112.93994141 122.8671875 C-111.92372935 88.4619528 -108.17180189 57.06280442 -83.5 31.1875 C-81 29 -81 29 -79 29 C-68.24994029 54.9663928 -57.5273646 80.94239511 -47 107 C-46.89453857 106.23034912 -46.78907715 105.46069824 -46.68041992 104.66772461 C-42.89548355 77.19972465 -38.60144635 51.51551015 -25 27 C-24.2575 25.58074219 -24.2575 25.58074219 -23.5 24.1328125 C-19.94414704 17.89154975 -7.81055854 0 0 0 Z " fill="#FDFDFE" transform="translate(1220,365)"/>
<path d="M0 0 C6.59233156 30.34657445 11.21512276 60.93507632 15.66796875 91.65625 C15.78328949 92.45154114 15.89861023 93.24683228 16.01742554 94.06622314 C16.56445552 97.86804463 17.09335835 101.67099465 17.58447266 105.48046875 C17.67449051 106.17700562 17.76450836 106.87354248 17.85725403 107.59118652 C18.09660279 109.46329637 18.33037118 111.3361173 18.5637207 113.20898438 C18.8470002 115.94709417 18.8470002 115.94709417 20 118 C20.21503174 117.33282959 20.43006348 116.66565918 20.65161133 115.97827148 C27.81514443 93.98015343 36.02822245 72.64053614 50 54 C50.75023437 52.99710937 51.50046875 51.99421875 52.2734375 50.9609375 C62.81494024 37.5343919 76.63193269 25.77328817 94 23 C96.40107614 22.81949952 98.59101475 22.83940098 101 23 C99.96510122 28.71763731 98.92014953 34.43308677 97.8515625 40.14453125 C95.36976569 53.55570194 93.2445537 66.96149701 91.51342773 80.48999023 C90.54613915 88.01456779 89.47753956 95.51162061 88.296875 103.00561523 C84.73824523 125.60205885 82.02608483 148.30256226 79.24005127 171.00488281 C78.43247459 177.56500264 77.60208343 184.12100584 76.72265625 190.671875 C68.0391062 255.55850053 59.86158099 321.55504348 57.33862305 387.00244141 C57.05912249 394.19873067 56.60595265 401.37705794 56.125 408.5625 C50.8830238 488.2110534 50.8830238 488.2110534 50 568 C54.66071739 562.30879851 59.31998833 556.61655353 63.95458984 550.90405273 C65.03171151 549.57696396 66.11027376 548.25104368 67.18994141 546.92602539 C69.58413077 543.98663484 71.96642012 541.04285703 74.3046875 538.05859375 C96.33480372 510.16763529 127.21491994 486.93871762 162.921875 481.390625 C178.61375597 479.65762482 193.76963738 481.05412766 209 485 C210.11761719 485.28875 211.23523437 485.5775 212.38671875 485.875 C236.05847401 492.95440344 252.76632738 509.74915568 264.46875 531.03125 C266 534 266 534 267 537 C269.21320105 538.59585992 269.21320105 538.59585992 271.9375 540.125 C277.94106494 543.82369436 282.97102555 548.07471575 288 553 C288.62648438 553.59039063 289.25296875 554.18078125 289.8984375 554.7890625 C298.2171632 563.33363595 304.16148362 575.80256249 304.09765625 587.73828125 C304.09282227 589.33833008 304.09282227 589.33833008 304.08789062 590.97070312 C304.07951172 592.07349609 304.07113281 593.17628906 304.0625 594.3125 C304.05798828 595.43462891 304.05347656 596.55675781 304.04882812 597.71289062 C304.03707313 600.4753151 304.02064077 603.23762998 304 606 C300.72223608 605.40682257 297.70827966 604.61761623 294.59375 603.44140625 C280.58256838 598.25907508 268.4161194 595.87052696 253.4375 595.6875 C252.39634033 595.66953369 251.35518066 595.65156738 250.2824707 595.63305664 C231.34222832 595.65543934 218.58429099 603.67670278 205.49902344 616.54052734 C204.16283724 617.84145912 202.79067177 619.10520178 201.4140625 620.36328125 C188.34794755 632.60483554 179.1735061 648.23978718 171 664 C170.56478027 664.82419434 170.12956055 665.64838867 169.68115234 666.49755859 C152.89920943 698.36452972 141.0838543 732.86780363 129.55737305 766.92425537 C113.49475109 814.3816431 93.82024147 862.38259793 64 903 C63.4858252 903.70205566 62.97165039 904.40411133 62.44189453 905.12744141 C56.21321784 913.57516603 49.76387019 921.65502506 42.55859375 929.2890625 C40.08117312 931.91399367 37.69429064 934.60092296 35.3125 937.3125 C31.46830541 941.58458197 27.41131343 945.32783713 23 949 C22.16339844 949.73605469 21.32679688 950.47210937 20.46484375 951.23046875 C-15.90267673 982.69562746 -61.60747419 996.97990424 -108.36328125 1004.13671875 C-109.57717529 1004.33378418 -110.79106934 1004.53084961 -112.04174805 1004.73388672 C-114.36305951 1005.10872546 -116.68885467 1005.45714321 -119.01879883 1005.77392578 C-127.07967247 1007.09787474 -130.76678288 1009.87443617 -136 1016 C-146.91136396 1025.07825481 -160.27913471 1031.61171786 -174 1035 C-174.64018066 1035.17587646 -175.28036133 1035.35175293 -175.93994141 1035.53295898 C-182.50012349 1037.20535181 -188.87887643 1037.34446749 -195.625 1037.3125 C-196.77202393 1037.31048584 -197.91904785 1037.30847168 -199.10083008 1037.30639648 C-206.65959129 1037.21726896 -213.59807355 1036.57628596 -220.94921875 1034.75390625 C-224.31003369 1033.92338476 -227.54941015 1033.30275608 -231 1033 C-233.22987296 1034.69366701 -233.22987296 1034.69366701 -234.5234375 1036.28515625 C-242.0188639 1044.99016204 -252.25322455 1052.7030171 -263.37011719 1055.99926758 C-270.89296838 1058.45796483 -270.89296838 1058.45796483 -275.99707031 1064.35864258 C-277.35525162 1067.82051487 -278.31113393 1071.37192733 -279.18539429 1074.98297119 C-279.95515434 1078.15895431 -280.84935502 1081.29564537 -281.73796082 1084.44006348 C-282.18560014 1086.02775897 -282.62703693 1087.61721649 -283.06221008 1089.20837402 C-286.08034189 1100.17073458 -290.46952556 1110.58493835 -295 1121 C-295.3515918 1121.81082031 -295.70318359 1122.62164063 -296.06542969 1123.45703125 C-304.29771062 1142.20614955 -314.92628835 1159.05469237 -329 1174 C-329.57363281 1174.63808594 -330.14726563 1175.27617188 -330.73828125 1175.93359375 C-337.03405981 1182.68014404 -344.41624966 1187.23129724 -353.1875 1190 C-360.08346065 1192.69803351 -362.06240677 1197.73357887 -365.02734375 1204.0234375 C-377.39439257 1230.00989452 -402.98453962 1243.05226771 -428 1254 C-429 1252 -429 1252 -428.47094727 1250.21240234 C-428.17244873 1249.51066895 -427.8739502 1248.80893555 -427.56640625 1248.0859375 C-427.24736328 1247.32539062 -426.92832031 1246.56484375 -426.59960938 1245.78125 C-426.25736328 1244.9871875 -425.91511719 1244.193125 -425.5625 1243.375 C-425.22412109 1242.57320312 -424.88574219 1241.77140625 -424.53710938 1240.9453125 C-423.69833222 1238.96060036 -422.85004755 1236.97991125 -422 1235 C-422.6084375 1235.53367187 -423.216875 1236.06734375 -423.84375 1236.6171875 C-436.46767589 1247.3475245 -461.70791892 1267 -479 1267 C-478.41864968 1258.74070392 -477.22848815 1250.61998062 -475.84326172 1242.46264648 C-475.49537925 1240.41023888 -475.15551554 1238.3566079 -474.81640625 1236.30273438 C-473.13021807 1226.26043614 -473.13021807 1226.26043614 -472 1224 C-473.10859375 1224.32355469 -474.2171875 1224.64710937 -475.359375 1224.98046875 C-480.33824272 1226.21861725 -485.13882284 1226.34313921 -490.25 1226.3125 C-491.17441895 1226.30976074 -492.09883789 1226.30702148 -493.05126953 1226.30419922 C-500.05523414 1226.19735284 -506.33863897 1225.22407005 -513 1223 C-514.41515512 1222.59879623 -515.83161608 1222.20213511 -517.25 1221.8125 C-518.61125 1221.4103125 -518.61125 1221.4103125 -520 1221 C-519.33021695 1216.95503569 -517.25293831 1213.72886378 -515.18359375 1210.265625 C-514.80767593 1209.62759949 -514.43175812 1208.98957397 -514.04444885 1208.33221436 C-512.84681591 1206.30199912 -511.64227516 1204.27598337 -510.4375 1202.25 C-509.62258736 1200.87136527 -508.80812894 1199.49246193 -507.99414062 1198.11328125 C-506.0013443 1194.73905207 -504.00234412 1191.36857133 -502 1188 C-503.08804932 1188.01514648 -504.17609863 1188.03029297 -505.29711914 1188.04589844 C-514.02098779 1187.93776319 -522.44581992 1184.14739298 -530 1180 C-528.33438497 1175.66729256 -525.12553843 1172.8647559 -521.875 1169.6875 C-520.99702759 1168.81919556 -520.99702759 1168.81919556 -520.10131836 1167.93334961 C-516.42087886 1164.3179158 -512.65593572 1160.84036473 -508.72265625 1157.5 C-506.00694189 1155.13529634 -503.51382421 1152.57666982 -501 1150 C-501.90621094 1149.64808594 -502.81242188 1149.29617188 -503.74609375 1148.93359375 C-511.46345801 1145.80581543 -517.66689474 1142.51463191 -524 1137 C-525.010625 1136.236875 -526.02125 1135.47375 -527.0625 1134.6875 C-527.701875 1134.130625 -528.34125 1133.57375 -529 1133 C-529 1132.34 -529 1131.68 -529 1131 C-527.48828125 1129.625 -527.48828125 1129.625 -525.3125 1128 C-524.48363281 1127.37480469 -523.65476562 1126.74960938 -522.80078125 1126.10546875 C-521.41439453 1125.06326172 -521.41439453 1125.06326172 -520 1124 C-519.04480469 1123.25363281 -518.08960938 1122.50726562 -517.10546875 1121.73828125 C-515.56826172 1120.53751953 -515.56826172 1120.53751953 -514 1119.3125 C-513.46616699 1118.89129883 -512.93233398 1118.47009766 -512.38232422 1118.03613281 C-509.1962823 1115.56126918 -505.9571335 1113.31013645 -502.52734375 1111.18359375 C-492.51949011 1105.15687783 -492.51949011 1105.15687783 -487.375 1095.0625 C-487.15585937 1093.88558594 -486.93671875 1092.70867187 -486.7109375 1091.49609375 C-483.18941937 1074.17873813 -466.90763279 1058.27974632 -455 1046 C-454.2575 1045.22914062 -453.515 1044.45828125 -452.75 1043.6640625 C-448.36719235 1039.19565314 -443.74979707 1035.07125463 -439 1031 C-437.55753906 1029.72382813 -437.55753906 1029.72382813 -436.0859375 1028.421875 C-426.16185641 1019.69238688 -415.6573261 1011.80755665 -405 1004 C-404.36594238 1003.53352051 -403.73188477 1003.06704102 -403.07861328 1002.58642578 C-388.87949214 992.16839642 -374.13020285 982.49914308 -359.1875 973.1875 C-358.31762451 972.63489502 -357.44774902 972.08229004 -356.55151367 971.51293945 C-352.60062888 969.04097954 -348.79564649 966.81685128 -344.44140625 965.13671875 C-338.87877318 962.88842704 -334.49680062 960.85666663 -331.61230469 955.3515625 C-328.88777062 948.56480156 -327.00724409 941.53497053 -325.05078125 934.49755859 C-322.29530181 925.32585821 -318.05881537 916.65442207 -314 908 C-313.57493164 907.08943848 -313.14986328 906.17887695 -312.71191406 905.24072266 C-303.14533762 884.95223831 -291.73685279 865.74577106 -278 848 C-278.60513428 848.06856201 -279.21026855 848.13712402 -279.83374023 848.20776367 C-302.16881344 850.60825215 -323.46569729 849.1211051 -343 837 C-341.41467191 832.44435939 -339.00996919 828.68524231 -336.375 824.6875 C-335.95476562 824.04232422 -335.53453125 823.39714844 -335.1015625 822.73242188 C-334.07161759 821.15239276 -333.03634372 819.57583953 -332 818 C-332.70495605 818.14622803 -333.40991211 818.29245605 -334.13623047 818.44311523 C-337.38142967 819.11315186 -340.62817927 819.77536746 -343.875 820.4375 C-345.53789063 820.78264648 -345.53789063 820.78264648 -347.234375 821.13476562 C-367.45590644 825.23854701 -388.89437143 826.07030589 -409 821 C-410.22203125 820.73316406 -411.4440625 820.46632813 -412.703125 820.19140625 C-426.99448198 816.82785466 -439.95590762 810.32421072 -452 802 C-450.63986419 798.85208743 -449.21946401 797.08636177 -446.5234375 794.984375 C-445.853125 794.45585938 -445.1828125 793.92734375 -444.4921875 793.3828125 C-443.79351563 792.84398437 -443.09484375 792.30515625 -442.375 791.75 C-441.31539062 790.91855469 -441.31539062 790.91855469 -440.234375 790.0703125 C-438.49468917 788.70677496 -436.74990519 787.35038055 -435 786 C-435.78834229 785.98541748 -436.57668457 785.97083496 -437.38891602 785.95581055 C-474.12904357 785.20144241 -510.09365617 781.60015472 -541 760 C-536.97626356 755.03729904 -532.69344521 750.7402046 -527.8125 746.625 C-527.19697266 746.09261719 -526.58144531 745.56023438 -525.94726562 745.01171875 C-521.38829486 741.12943162 -521.38829486 741.12943162 -518 740 C-518 739.34 -518 738.68 -518 738 C-519.0415625 737.91363281 -520.083125 737.82726563 -521.15625 737.73828125 C-547.73898637 735.25113574 -571.75779348 724.72464316 -590 705 C-588.54741409 702.09482818 -586.63150015 701.83380634 -583.65234375 700.6171875 C-582.57275391 700.17246094 -581.49316406 699.72773437 -580.38085938 699.26953125 C-578.67639648 698.57923828 -578.67639648 698.57923828 -576.9375 697.875 C-575.79732422 697.40707031 -574.65714844 696.93914063 -573.48242188 696.45703125 C-570.65735819 695.29863694 -567.82986554 694.14660251 -565 693 C-565.80594604 692.73932739 -565.80594604 692.73932739 -566.62817383 692.47338867 C-596.53982753 682.66824355 -619.98652458 669.1322249 -638 643 C-634.31265242 640.54176828 -631.30300029 639.98757384 -627 639 C-629.79736294 637.13509137 -632.65004421 635.64309245 -635.64794922 634.13330078 C-656.67301358 623.43407378 -672.62380459 609.19379857 -681.1171875 586.78515625 C-682 584 -682 584 -682 581 C-674.08 580.67 -666.16 580.34 -658 580 C-659.85625 578.906875 -661.7125 577.81375 -663.625 576.6875 C-687.40901143 562.2647292 -708.13233251 540.65139807 -715 513 C-715 512.01 -715 511.02 -715 510 C-706.75 510 -698.5 510 -690 510 C-691.629375 508.72125 -693.25875 507.4425 -694.9375 506.125 C-705.16375306 497.69489651 -712.00269417 488.67081346 -718 477 C-718.38414062 476.29230469 -718.76828125 475.58460938 -719.1640625 474.85546875 C-722.30197616 468.12508384 -722.36186993 457.94994457 -719.98046875 451.04296875 C-719.49513672 450.03169922 -719.49513672 450.03169922 -719 449 C-716.36 448.67 -713.72 448.34 -711 448 C-711.61875 447.41605469 -711.61875 447.41605469 -712.25 446.8203125 C-727.9390946 431.62150211 -743.8997754 409.06291909 -745.1328125 386.578125 C-745.11297203 380.66566379 -744.69947356 374.87058166 -744 369 C-739.59185274 370.38374954 -735.47259068 372.08163188 -731.2890625 374.0390625 C-730.67606293 374.32478119 -730.06306335 374.61049988 -729.43148804 374.90487671 C-727.49454784 375.80853068 -725.55975656 376.71668169 -723.625 377.625 C-722.30352544 378.24248725 -720.98191214 378.85967767 -719.66015625 379.4765625 C-716.43849336 380.98094748 -713.21874023 382.48937009 -710 384 C-710.34667725 383.56357178 -710.69335449 383.12714355 -711.05053711 382.67749023 C-730.37739811 358.21937799 -748.17148687 329.45534797 -745 297 C-744.11572448 292.19134846 -742.65569864 287.59752034 -741 283 C-737.36020757 284.34414222 -734.23944724 285.98202174 -730.98046875 288.08203125 C-730.04009766 288.68466797 -729.09972656 289.28730469 -728.13085938 289.90820312 C-727.15955078 290.53662109 -726.18824219 291.16503906 -725.1875 291.8125 C-723.26449313 293.04844196 -721.34131883 294.28412345 -719.41796875 295.51953125 C-718.04390869 296.40439209 -718.04390869 296.40439209 -716.64208984 297.30712891 C-713.11312837 299.56824689 -709.56001543 301.78815609 -706 304 C-706.21615967 303.4831665 -706.43231934 302.96633301 -706.6550293 302.43383789 C-719.01424668 272.7027803 -728.35731507 239.47002629 -715.84375 208.1015625 C-714.95600764 206.04073202 -713.98934633 204.01402647 -713 202 C-704.59315769 208.91229256 -696.94961873 216.61124794 -689.890625 224.88671875 C-685.804197 229.45439963 -681.363305 233.69922644 -677 238 C-675.99893105 238.99892991 -674.99833472 239.99833749 -674 241 C-674.2165625 239.70255859 -674.2165625 239.70255859 -674.4375 238.37890625 C-678.44317588 211.20150811 -675.81369084 186.51559618 -666 161 C-665.34 161 -664.68 161 -664 161 C-662.46630859 163.23364258 -662.46630859 163.23364258 -660.6484375 166.39453125 C-660.31754623 166.96461914 -659.98665497 167.53470703 -659.64573669 168.12207031 C-658.54876874 170.01507978 -657.46208993 171.91380361 -656.375 173.8125 C-655.60982863 175.13615863 -654.84378565 176.45931376 -654.0769043 177.78198242 C-652.89212605 179.82553854 -651.70785625 181.86936861 -650.52622986 183.91474915 C-646.67496475 190.57937595 -642.74904182 197.1979264 -638.8125 203.8125 C-631.9356175 215.39089855 -625.13543318 227.0128309 -618.37182617 238.65771484 C-616.93211257 241.11591244 -615.46977146 243.55967583 -614 246 C-613.98541748 245.351521 -613.97083496 244.70304199 -613.95581055 244.03491211 C-613.47040919 224.66173779 -610.38355424 207.57645397 -605 189 C-604.34 189 -603.68 189 -603 189 C-601.21540013 192.6912069 -599.43149579 196.38274906 -597.64807129 200.07452393 C-597.00512643 201.40514771 -596.36197701 202.73567268 -595.71862793 204.06610107 C-589.32526809 217.28758838 -589.32526809 217.28758838 -586.25390625 223.81640625 C-574.43867825 248.91000578 -561.83045671 273.59504562 -547.55664062 297.38330078 C-545.5558961 300.74653475 -543.61755109 304.14349375 -541.6796875 307.54321289 C-536.55411737 316.51936757 -531.12043818 325.24703306 -525.41357422 333.86425781 C-523.96804739 336.04827658 -522.5325878 338.23869613 -521.09765625 340.4296875 C-505.37795545 364.32965182 -488.31647385 387.75974472 -468.95703125 408.86328125 C-467.20488515 410.77630304 -465.50299234 412.72015283 -463.8125 414.6875 C-454.42613117 425.42098658 -444.63235483 435.50479542 -434 445 C-433.02339493 445.90862185 -432.0494498 446.82011067 -431.078125 447.734375 C-424.25731391 454.13885528 -417.13080153 459.99788134 -409.70410156 465.68554688 C-408.11043796 466.91481405 -406.53493855 468.16752969 -404.9609375 469.421875 C-389.33888344 481.77419682 -372.44578013 492.42810023 -355 502 C-354.14277344 502.47115234 -353.28554688 502.94230469 -352.40234375 503.42773438 C-330.8741418 515.16326804 -308.38366496 524.79725019 -285.8125 534.3125 C-285.12889404 534.60148163 -284.44528809 534.89046326 -283.7409668 535.1882019 C-281.81473118 536.00079976 -279.88636321 536.80806704 -277.95703125 537.61328125 C-276.85335205 538.07516846 -275.74967285 538.53705566 -274.61254883 539.01293945 C-272.15364554 540.11781039 -272.15364554 540.11781039 -270 540 C-270.31453125 539.23300781 -270.6290625 538.46601562 -270.953125 537.67578125 C-283.78948606 504.38630271 -281.11566806 467.65824803 -271 434 C-270.67 433.34 -270.34 432.68 -270 432 C-265.32894208 433.55701931 -261.91294315 436.08447373 -258 439 C-258.18175781 438.47792969 -258.36351562 437.95585938 -258.55078125 437.41796875 C-265.77183633 416.27323822 -268.38832047 394.75761914 -268.375 372.5 C-268.37758316 371.39410522 -268.37758316 371.39410522 -268.38021851 370.26586914 C-268.37785308 361.3489664 -267.81822208 352.7626169 -266 344 C-258.12105545 345.39799016 -250.61312555 347.54184347 -243 350 C-243.31453125 349.195625 -243.6290625 348.39125 -243.953125 347.5625 C-246.92063669 339.41078113 -248.83879423 331.3757713 -250.25 322.8125 C-250.41274414 321.82830078 -250.57548828 320.84410156 -250.74316406 319.83007812 C-252.41976024 309.12976367 -253.17986917 298.51439703 -253.125 287.6875 C-253.12089111 286.6876709 -253.11678223 285.6878418 -253.11254883 284.65771484 C-253.00875148 270.81137133 -251.64357948 257.58367571 -249 244 C-246.26951538 245.27782216 -243.99594754 246.66593672 -241.671875 248.58203125 C-240.73045654 249.35305176 -240.73045654 249.35305176 -239.77001953 250.13964844 C-239.10341309 250.69168945 -238.43680664 251.24373047 -237.75 251.8125 C-236.32555568 252.98051125 -234.9010754 254.14847865 -233.4765625 255.31640625 C-232.7434082 255.91984863 -232.01025391 256.52329102 -231.25488281 257.14501953 C-227.55321344 260.19019968 -223.8401755 263.22132432 -220.125 266.25 C-219.44147461 266.81050049 -218.75794922 267.37100098 -218.05371094 267.94848633 C-214.70861531 270.74394455 -214.70861531 270.74394455 -211 273 C-211.26554688 271.79988281 -211.53109375 270.59976562 -211.8046875 269.36328125 C-217.75204752 241.68107481 -219.70427623 212.89420943 -214 185 C-213.76724365 183.85966309 -213.76724365 183.85966309 -213.52978516 182.69628906 C-211.61837638 173.58933229 -209.172434 164.7579428 -206 156 C-201.51363739 156 -200.88362903 156.48778244 -197.5078125 159.1484375 C-196.63640625 159.82519531 -195.765 160.50195312 -194.8671875 161.19921875 C-193.96226562 161.91722656 -193.05734375 162.63523437 -192.125 163.375 C-183.90579584 169.82071517 -175.53359708 175.98078027 -167 182 C-166.98541748 180.95360352 -166.97083496 179.90720703 -166.95581055 178.82910156 C-166.35712531 139.02803553 -166.35712531 139.02803553 -163 124 C-162.8134082 123.14116211 -162.62681641 122.28232422 -162.43457031 121.39746094 C-158.78344251 105.05735797 -153.06239883 89.57334915 -147 74 C-146.34 74 -145.68 74 -145 74 C-143.61483414 76.07774878 -142.36026151 78.14685235 -141.125 80.3125 C-140.31453636 81.69780795 -139.50193151 83.08186481 -138.6875 84.46484375 C-138.25308594 85.20331543 -137.81867187 85.94178711 -137.37109375 86.70263672 C-135.02354518 90.63611821 -132.57677485 94.50590429 -130.125 98.375 C-129.62532715 99.16406738 -129.1256543 99.95313477 -128.61083984 100.76611328 C-123.46044356 108.87844096 -118.23939156 116.94495116 -113 125 C-112.98018066 124.29617188 -112.96036133 123.59234375 -112.93994141 122.8671875 C-111.92372935 88.4619528 -108.17180189 57.06280442 -83.5 31.1875 C-81 29 -81 29 -79 29 C-68.24994029 54.9663928 -57.5273646 80.94239511 -47 107 C-46.89453857 106.23034912 -46.78907715 105.46069824 -46.68041992 104.66772461 C-42.89548355 77.19972465 -38.60144635 51.51551015 -25 27 C-24.2575 25.58074219 -24.2575 25.58074219 -23.5 24.1328125 C-19.94414704 17.89154975 -7.81055854 0 0 0 Z M-12 39 C-16.00465546 48.53108 -19.37442938 57.98108618 -22 68 C-22.33902344 69.19625 -22.67804687 70.3925 -23.02734375 71.625 C-26.18892886 83.26917762 -27.74898619 95.01284215 -29 107 C-29.10586426 108.00869141 -29.21172852 109.01738281 -29.32080078 110.05664062 C-32.70979914 143.9788492 -30.9768149 177.87548991 -28.75390625 211.8125 C-28.69342102 212.75459824 -28.63293579 213.69669647 -28.57061768 214.66734314 C-28.26328181 219.17447982 -27.78877411 223.54678277 -27 228 C-26.93421998 230.45754141 -26.91430838 232.91668778 -26.9375 235.375 C-26.94652344 236.62023437 -26.95554687 237.86546875 -26.96484375 239.1484375 C-26.98224609 240.55996094 -26.98224609 240.55996094 -27 242 C-31.55915921 229.16855191 -35.11226131 216.30518855 -38 203 C-38.18836426 202.1352002 -38.37672852 201.27040039 -38.57080078 200.37939453 C-41.69389286 185.86234447 -44.12041012 171.46408729 -44.36328125 156.57421875 C-44.95978372 153.22575394 -45.82650383 150.99056014 -47.2644043 147.94555664 C-49.80865429 142.45601506 -52.13974589 136.90580418 -54.40625 131.296875 C-55.00956146 129.81262276 -55.00956146 129.81262276 -55.62506104 128.29838562 C-56.47924098 126.19683293 -57.33251542 124.09491199 -58.18493652 121.99264526 C-60.40429365 116.52021901 -62.6311886 111.05086753 -64.859375 105.58203125 C-65.29920715 104.50248672 -65.73903931 103.4229422 -66.19219971 102.3106842 C-69.99162508 92.9971876 -73.84794448 83.70842558 -77.75 74.4375 C-78.02593994 73.78189087 -78.30187988 73.12628174 -78.58618164 72.45080566 C-80.05397933 68.96573047 -81.52511926 65.48208327 -83 62 C-94.17329946 76.12455755 -93.48525885 102.5572374 -93.33618164 119.61572266 C-93.31251637 122.49800646 -93.31566257 125.37936151 -93.32226562 128.26171875 C-93.29763711 146.16989464 -91.36328073 163.43395795 -88 181 C-87.68044517 182.69621721 -87.36128874 184.39250951 -87.04248047 186.08886719 C-86.01827614 191.51965637 -84.97881175 196.94746938 -83.9375 202.375 C-83.23761079 206.02851775 -82.53843992 209.68217229 -81.83984375 213.3359375 C-81.59383926 214.62210968 -81.59383926 214.62210968 -81.34286499 215.93426514 C-80.19450236 221.95008676 -79.07269097 227.97016328 -78 234 C-87.20755509 217.38091407 -95.38346465 200.43901455 -100.39453125 182.0390625 C-103.86543719 169.37891994 -109.84805911 159.52610721 -117.19384766 148.69140625 C-119.99361666 144.51937956 -122.64986568 140.26030139 -125.3125 136 C-130.16101007 128.30268874 -135.06371933 120.64126275 -140 113 C-140.66 113.33 -141.32 113.66 -142 114 C-152.14582471 146.08417867 -150.40128548 187.62806196 -144.3125 220.1875 C-144.17961578 220.90744141 -144.04673157 221.62738281 -143.90982056 222.36914062 C-141.7129753 234.18928835 -138.98353657 245.64670592 -135 257 C-134.63938477 258.03189453 -134.27876953 259.06378906 -133.90722656 260.12695312 C-130.39004082 270.12867734 -126.73818978 280.07896299 -123 290 C-139.24130711 272.21938138 -155.79319401 246.9675751 -158.7109375 222.54296875 C-160.08319332 212.24722649 -161.48572193 205.11094571 -169.94018555 198.45117188 C-173.42124259 196.00237154 -176.95919136 193.68996672 -180.59667969 191.48046875 C-183.7935331 189.51117587 -186.74967157 187.31862164 -189.75 185.0625 C-191.16545427 184.03998626 -192.58152016 183.01831236 -194 182 C-200.07296726 192.14816408 -198.32902569 208.61978071 -198.25 220.125 C-198.24689819 220.93425934 -198.24379639 221.74351868 -198.24060059 222.57730103 C-198.18283533 235.47656756 -197.70915619 248.20131181 -196 261 C-195.87641113 261.96744141 -195.75282227 262.93488281 -195.62548828 263.93164062 C-192.38598844 288.73246608 -186.79578836 313.05632608 -179.48046875 336.9609375 C-178.07360881 341.60063879 -176.990618 346.25469817 -176 351 C-184.28379729 338.73437745 -192.34752511 325.85942971 -197.26879883 311.83666992 C-200.337261 303.12196849 -204.7519842 298.55109554 -212 293 C-213.18251852 292.06573404 -214.36345351 291.12946102 -215.54296875 290.19140625 C-217.93170003 288.29867293 -220.33396597 286.42528816 -222.74609375 284.5625 C-226.15534345 281.91009386 -229.38115089 279.08314907 -232.546875 276.14453125 C-233.95357229 274.79374874 -233.95357229 274.79374874 -236 275 C-236.67303434 313.91519042 -233.45366518 350.00013358 -219.74682617 386.76708984 C-219 389 -219 389 -219 391 C-220.57061308 389.02682202 -222.1325201 387.0479592 -223.6875 385.0625 C-224.1530127 384.47218994 -224.61852539 383.88187988 -225.09814453 383.27368164 C-227.67440214 379.94318774 -229.68169868 376.81717123 -231.375 372.9375 C-233.43945129 368.88312635 -235.81739028 367.91227877 -240.0625 366.4375 C-243.62722226 365.42607187 -246.26229567 365 -250 365 C-250.20218268 374.20535996 -249.75306763 383.02354374 -248.375 392.125 C-248.19533691 393.32584229 -248.01567383 394.52668457 -247.83056641 395.76391602 C-242.73478887 428.65932433 -232.370359 458.61175343 -220.00219727 489.34716797 C-219.52774925 490.52986267 -219.52774925 490.52986267 -219.04371643 491.7364502 C-218.45171207 493.21014373 -217.85675247 494.68265526 -217.25816345 496.15368652 C-215.55855304 500.3847979 -214.18100913 504.59486461 -213 509 C-226.07200144 499.10437274 -235.40342264 486.88940639 -243.32421875 472.61328125 C-246.94554024 466.14572813 -252.88543429 460.3715219 -260 458 C-260.31507274 459.52030242 -260.62690732 461.041276 -260.9375 462.5625 C-261.19853516 463.83287109 -261.19853516 463.83287109 -261.46484375 465.12890625 C-264.31846744 480.43849318 -264.52410182 497.79071845 -261 513 C-260.8546582 513.68126953 -260.70931641 514.36253906 -260.55957031 515.06445312 C-258.49169435 524.631991 -255.63619932 533.55474408 -251.5 542.4375 C-251.13253662 543.23623535 -250.76507324 544.0349707 -250.38647461 544.85791016 C-250.02175049 545.60476074 -249.65702637 546.35161133 -249.28125 547.12109375 C-248.96220703 547.7752124 -248.64316406 548.42933105 -248.31445312 549.10327148 C-245.4673345 553.21160444 -241.22743856 555.57239031 -236.82446289 557.7421875 C-235.81472916 558.24371338 -234.80499542 558.74523926 -233.7646637 559.26196289 C-232.13512001 560.06041626 -232.13512001 560.06041626 -230.47265625 560.875 C-229.33332138 561.44017334 -228.19398651 562.00534668 -227.02012634 562.58764648 C-223.37039917 564.3975247 -219.7168534 566.19949167 -216.0625 568 C-199.174603 576.32755286 -182.45190401 584.83830191 -166 594 C-164.76867837 594.68019102 -163.5370293 595.35978991 -162.30493164 596.03857422 C-147.71356104 604.096242 -133.287065 612.41507267 -119 621 C-118.06446289 621.56187012 -117.12892578 622.12374023 -116.16503906 622.70263672 C-102.8494574 630.71685353 -89.68190491 638.94638855 -76.59960938 647.33544922 C-72.07295146 650.23390467 -67.53616295 653.11645107 -63 656 C-74.2998164 651.43647738 -85.43820476 646.61143465 -96.5 641.5 C-98.80353518 640.43993142 -101.10758965 639.3809975 -103.41169739 638.32217407 C-104.97810143 637.60231026 -106.5443349 636.88207516 -108.11039734 636.16146851 C-113.15512384 633.84162234 -118.20832019 631.54145364 -123.26953125 629.2578125 C-142.02326804 620.7917653 -160.63669491 612.05352491 -179.21899414 603.21809387 C-190.77860518 597.72498746 -202.37608058 592.3134043 -213.98822021 586.93231201 C-215.37379855 586.29019833 -216.75924844 585.64780743 -218.14459229 585.00518799 C-249.12272508 570.63653492 -280.20057624 556.74582422 -311.9362793 544.12304688 C-350.54334952 528.72206587 -387.25879466 509.8786487 -420 484 C-420.81597656 483.36320312 -421.63195312 482.72640625 -422.47265625 482.0703125 C-437.47981975 470.22630708 -451.5854294 457.48770171 -465.15093994 444.02429199 C-466.15816232 443.02511139 -467.16686031 442.02741559 -468.17718506 441.03137207 C-474.16267857 435.12154315 -479.78650244 429.05361548 -485.01391602 422.45361328 C-487.00247347 419.99694427 -489.09089693 417.68220228 -491.25 415.375 C-497.12076664 408.92947299 -502.282847 401.9400171 -507.51318359 394.97460938 C-508.75555191 393.32464633 -510.01097054 391.68452027 -511.26953125 390.046875 C-543.98240529 347.26368983 -573.53410356 297.93966984 -594 248 C-594.33 248 -594.66 248 -595 248 C-595.55390431 274.79841821 -583.81684396 303.93359716 -572.12255859 327.71386719 C-570.94943908 330.10296922 -569.81209098 332.50725926 -568.67578125 334.9140625 C-562.64850195 347.50040383 -555.55083172 359.27665979 -548 371 C-547.57251465 371.67337402 -547.1450293 372.34674805 -546.70458984 373.04052734 C-535.34811496 390.91430792 -522.05453516 407.82487961 -508.1875 423.8125 C-502.20382023 430.73903404 -502.20382023 430.73903404 -499.34765625 434.1875 C-490.57648875 444.75881297 -481.24032763 454.8679089 -471.453125 464.5078125 C-469.16458843 466.7782189 -467.02023422 469.10598027 -464.93359375 471.5625 C-459.33797228 478.04509866 -453.13486272 483.96957021 -447.0625 490 C-445.79338627 491.2640885 -444.52450411 492.52840956 -443.25585938 493.79296875 C-440.1732368 496.86466724 -437.08749572 499.93320008 -434 503 C-440.68329761 498.67569282 -447.06159397 494.0330204 -453.375 489.1875 C-454.30111084 488.47827393 -455.22722168 487.76904785 -456.18139648 487.03833008 C-465.83006631 479.62678697 -475.13113167 472.03005052 -483.98046875 463.67578125 C-490.31508939 457.92479502 -497.20951003 453.6026555 -504.6875 449.5 C-526.89422587 437.03796453 -548.05778521 422.26564655 -567.23291016 405.49609375 C-568.58175989 404.35409995 -569.95617755 403.24223677 -571.34130859 402.14453125 C-578.65756183 396.32669143 -585.29089247 390.01769234 -591.87109375 383.38964844 C-593.62281575 381.62719762 -595.38499428 379.87571432 -597.1484375 378.125 C-603.89183641 371.38941026 -610.08212893 364.47970749 -616 357 C-617.55950185 355.1849197 -619.12133812 353.37183674 -620.6875 351.5625 C-636.77879969 332.16340609 -650.06820364 310.518422 -659.3125 287.0625 C-662.74380514 278.37239946 -665.89156134 272.2339383 -673 266 C-674.54948562 264.46619214 -676.09113909 262.9244331 -677.625 261.375 C-678.37265625 260.63765625 -679.1203125 259.9003125 -679.890625 259.140625 C-681.80811486 257.19472788 -683.60200215 255.20194034 -685.375 253.125 C-689.94831911 247.7912461 -695.00121327 242.92989074 -700 238 C-701.3344505 236.66778477 -702.66822703 235.33489187 -704 234 C-706.86017916 275.3772585 -680.86002725 316.15829384 -656 347 C-655.26523437 347.92683594 -654.53046875 348.85367187 -653.7734375 349.80859375 C-648.93316702 355.83755257 -643.81909545 361.55609342 -638.5625 367.21875 C-636.4534211 369.50787222 -634.40021288 371.82475164 -632.375 374.1875 C-626.76234456 380.64406306 -620.6472942 386.50642357 -614.15234375 392.0625 C-611.55517837 394.4004202 -609.13221611 396.87826866 -606.6875 399.375 C-602.29021696 403.85072436 -597.64505384 407.85434539 -592.73828125 411.76171875 C-589.95300289 414.03841561 -587.32179181 416.42584143 -584.6875 418.875 C-578.97307707 424.12674948 -572.93817139 428.87254004 -566.79833984 433.60888672 C-563.85168632 435.88828283 -560.92710487 438.19559624 -558 440.5 C-556.82814203 441.41929255 -555.65626704 442.33856339 -554.484375 443.2578125 C-552.19538475 445.05557575 -549.9148198 446.8632507 -547.640625 448.6796875 C-539.84608518 454.88755829 -531.85593151 460.77308043 -523.7578125 466.578125 C-518.70636645 470.20166751 -513.69295428 473.87577273 -508.6875 477.5625 C-507.8931958 478.14620361 -507.0988916 478.72990723 -506.28051758 479.33129883 C-505.53181396 479.88325928 -504.78311035 480.43521973 -504.01171875 481.00390625 C-503.35647217 481.48674072 -502.70122559 481.9695752 -502.02612305 482.46704102 C-499.64734501 484.26681777 -497.32243449 486.12828871 -495 488 C-520.86244087 474.84418011 -545.68552611 460.89035825 -570 445 C-571.00828857 444.34290039 -572.01657715 443.68580078 -573.05541992 443.00878906 C-579.71797238 438.62369002 -586.12764224 434.00183225 -592.4375 429.125 C-593.34419434 428.42810059 -594.25088867 427.73120117 -595.18505859 427.01318359 C-596.97936789 425.63380633 -598.77270103 424.25315812 -600.56494141 422.87109375 C-602.65309439 421.26656152 -604.7499168 419.67532144 -606.85546875 418.09375 C-613.02477231 413.44668415 -618.85186853 408.55921301 -624.515625 403.3046875 C-626.66721582 401.30871488 -628.84640528 399.36107022 -631.0625 397.4375 C-640.58868049 389.13861884 -649.87622435 380.76940493 -658.109375 371.1640625 C-659.44607473 369.63403843 -660.81406439 368.1310873 -662.203125 366.6484375 C-668.65472472 359.75979393 -674.35673479 352.45987188 -680.01953125 344.91796875 C-680.52911377 344.24862305 -681.03869629 343.57927734 -681.5637207 342.88964844 C-682.83606395 341.21568333 -684.09121358 339.52868035 -685.34375 337.83984375 C-688.73644574 334.21265287 -692.4483334 331.91169869 -696.6875 329.375 C-698.38026312 328.33684463 -700.07163296 327.29641456 -701.76171875 326.25390625 C-702.62458496 325.72297363 -703.48745117 325.19204102 -704.37646484 324.64501953 C-709.43507729 321.47314807 -714.36585465 318.10737683 -719.29956055 314.74560547 C-720.00508057 314.26881348 -720.71060059 313.79202148 -721.4375 313.30078125 C-722.05496094 312.87966064 -722.67242188 312.45854004 -723.30859375 312.0246582 C-725.13809926 310.83114314 -725.13809926 310.83114314 -728 310 C-725.96577252 335.93640039 -707.09836512 359.68032308 -690 378 C-688.56232984 379.6456847 -687.12483353 381.29152128 -685.6875 382.9375 C-680.48954585 388.70299508 -674.82293296 393.88331386 -669 399 C-668.48953125 399.44988281 -667.9790625 399.89976562 -667.453125 400.36328125 C-659.27917841 407.52580516 -650.72260887 414.1073105 -641.97021484 420.54443359 C-640.12283052 421.90925458 -638.28825668 423.28939206 -636.45703125 424.67578125 C-609.49777727 444.96396652 -579.91896623 461.97720176 -550.36328125 478.15283203 C-545.83820522 480.63807631 -541.33166745 483.15601486 -536.82397461 485.67260742 C-526.72171897 491.31038126 -516.57698714 496.85728628 -506.375 502.3125 C-496.43056552 507.63078266 -486.65076627 513.16652847 -477 519 C-531.83770418 503.92161535 -584.33544927 478.81693578 -632 448 C-632.63035156 447.59587891 -633.26070312 447.19175781 -633.91015625 446.77539062 C-640.40301875 442.60587772 -646.67319844 438.12709962 -652.9375 433.625 C-653.64116699 433.11952637 -654.34483398 432.61405273 -655.06982422 432.09326172 C-656.13160889 431.32393311 -656.13160889 431.32393311 -657.21484375 430.5390625 C-657.9742627 429.99032471 -658.73368164 429.44158691 -659.51611328 428.8762207 C-661.28838967 427.5375197 -663.01743834 426.14078714 -664.71435547 424.70776367 C-674.31997408 416.76408925 -684.88083378 412.02346541 -696.25 407.0625 C-698.13869176 406.2196007 -700.02671749 405.37520739 -701.9140625 404.52929688 C-703.73898398 403.71740148 -705.56448527 402.90680779 -707.390625 402.09765625 C-708.22209045 401.72890884 -709.05355591 401.36016144 -709.91021729 400.98023987 C-715.18778589 398.68013429 -720.507611 396.72488887 -726 395 C-722.09376498 407.88474537 -714.02142078 418.28043912 -705 428 C-704.52546387 428.51304687 -704.05092773 429.02609375 -703.56201172 429.5546875 C-660.51243557 475.53647809 -593.99585622 499.09102692 -535.3737793 517.9050293 C-532.35685486 518.88418163 -529.35087259 519.89182388 -526.34672546 520.90937805 C-519.18332601 523.33037047 -511.98677251 525.47022395 -504.6875 527.4375 C-497.339705 529.45118944 -490.07228874 531.56289216 -482.875 534.0625 C-475.45791491 536.62852876 -467.95930573 538.61205348 -460.35083008 540.52612305 C-447.41681646 543.83462416 -434.71804576 547.95304187 -422 552 C-449.00973137 549.55532358 -475.49033038 545.84176026 -502 540 C-503.63408139 539.64437871 -505.26819421 539.28890178 -506.90234375 538.93359375 C-510.57899037 538.12969298 -514.25075691 537.3059064 -517.92041016 536.47070312 C-519.95961311 536.00914134 -522.00107056 535.5588401 -524.04296875 535.109375 C-578.14893797 523.01778212 -634.73807756 502.57559948 -680.72485352 471.38842773 C-686.43406921 467.54227223 -689.92615193 466.86926152 -696.75 466.9375 C-698.50570312 466.95103516 -698.50570312 466.95103516 -700.296875 466.96484375 C-701.18890625 466.97644531 -702.0809375 466.98804688 -703 467 C-701.46577532 477.70169064 -691.43020411 486.96917156 -683.27685547 493.34814453 C-642.90558475 523.45281395 -591.74577355 536.62226714 -543.40161133 547.45809937 C-540.60528591 548.08906346 -537.8116008 548.73123178 -535.01757812 549.37231445 C-518.83346914 553.05872897 -502.59837732 556.20080954 -486.25 559.0625 C-483.78658347 559.49783406 -481.32320493 559.9333831 -478.85986328 560.36914062 C-458.08264449 564.03267554 -437.29223448 567.54876574 -416.40185547 570.50878906 C-411.30101652 571.24532473 -406.21278475 572.05372859 -401.125 572.875 C-400.07578369 573.04354492 -399.02656738 573.21208984 -397.94555664 573.38574219 C-386.62270663 575.21089283 -375.31022979 577.09840169 -364 579 C-429.90411571 579.98492509 -496.73211256 574.74932508 -561.04345703 559.68652344 C-563.9704057 559.00687194 -566.90292147 558.3615995 -569.83984375 557.7265625 C-600.35908963 551.08381303 -630.99784658 542.00107671 -659 528 C-661.32273159 527.84479443 -663.64959313 527.74980833 -665.9765625 527.68359375 C-667.00443375 527.6524221 -667.00443375 527.6524221 -668.05307007 527.62062073 C-670.24361069 527.55519815 -672.43427189 527.49627446 -674.625 527.4375 C-676.1093875 527.39430782 -677.59376278 527.3506933 -679.078125 527.30664062 C-682.71862084 527.19952447 -686.35925251 527.09823638 -690 527 C-688.30181372 531.64924574 -685.8184915 534.76313868 -682.4375 538.3125 C-681.89593262 538.88645508 -681.35436523 539.46041016 -680.79638672 540.05175781 C-655.2790761 566.82871693 -621.82203003 576.51717297 -585.94189453 580.38305664 C-583.13294657 580.68664115 -580.32631968 581.00719709 -577.51953125 581.33007812 C-567.61273967 582.44428649 -557.74006872 583.29118828 -547.77639771 583.67448425 C-544.08404379 583.81960277 -540.44078462 584.03785226 -536.771698 584.48564148 C-532.24194422 585.0010772 -527.73032549 585.27261964 -523.17675781 585.46484375 C-522.34420471 585.50239777 -521.51165161 585.53995178 -520.65386963 585.5786438 C-517.92040884 585.7011789 -515.18678164 585.81942163 -512.453125 585.9375 C-510.51762936 586.02313499 -508.58214369 586.10899549 -506.64666748 586.19506836 C-502.58516197 586.37506122 -498.52357564 586.55305673 -494.46191406 586.72949219 C-489.34642607 586.95175631 -484.23111414 587.17779002 -479.11585236 587.40519428 C-461.55341757 588.18516302 -443.99324892 588.96226129 -426.421875 589.51171875 C-412.25958413 589.96549279 -398.13447139 590.82925285 -384 591.8125 C-382.74592346 591.89826294 -381.49184692 591.98402588 -380.19976807 592.0723877 C-362.01294195 593.32781024 -343.9722273 594.86607082 -326 598 C-334.99482548 598.74083441 -343.99584771 599.38481912 -353 600 C-353.66673359 600.0459795 -354.33346718 600.091959 -355.02040482 600.13933182 C-387.14464381 602.33150605 -419.281681 602.31095701 -451.46254122 602.25713789 C-456.49580666 602.24959794 -461.52899331 602.25231977 -466.56225586 602.26074219 C-521.45157805 602.35005622 -521.45157805 602.35005622 -546.421875 601.1171875 C-547.21488951 601.07889076 -548.00790401 601.04059402 -548.82494926 601.00113678 C-559.32443953 600.47378511 -569.72255704 599.43723672 -580.15354156 598.14113235 C-595.01490629 596.3091888 -609.64721941 595.63671677 -624.625 595.6875 C-625.56856354 595.69013855 -626.51212708 595.6927771 -627.48428345 595.69549561 C-637.02345995 595.74000138 -646.51841901 595.83432167 -656 597 C-634.91753956 624.18527794 -591.56044 631.94324945 -559.6875 636.3125 C-558.5339502 636.47194092 -557.38040039 636.63138184 -556.19189453 636.7956543 C-535.71549393 639.39062943 -515.06367999 639.16169345 -494.46166992 639.13037109 C-490.69130626 639.12466907 -486.92101318 639.12805768 -483.15065193 639.13382244 C-469.66805657 639.15120605 -456.20711182 639.16188421 -442.74320984 638.35612488 C-434.07947787 637.84679501 -425.42557369 637.88994048 -416.75 637.9375 C-415.10677224 637.94253958 -413.46354294 637.94709802 -411.8203125 637.95117188 C-407.88016846 637.96194963 -403.94010263 637.97906941 -400 638 C-458.66597697 653.99413955 -520.70050052 660.28942256 -581.03125 650.09375 C-588.19460324 648.88984099 -594.92309396 648.18681751 -602.0625 650 C-602.81660156 650.185625 -603.57070313 650.37125 -604.34765625 650.5625 C-604.89292969 650.706875 -605.43820312 650.85125 -606 651 C-606 651.99 -606 652.98 -606 654 C-573.8839873 678.91292722 -529.01369391 682.19149452 -490.0625 682.375 C-489.07885468 682.38022675 -488.09520935 682.38545349 -487.08175659 682.39083862 C-458.91185746 682.45849062 -430.51460328 680.11620392 -402.58764648 676.42944336 C-399.67186525 676.08042266 -396.92872534 675.89173867 -394 675.9375 C-393.236875 675.94652344 -392.47375 675.95554687 -391.6875 675.96484375 C-390.8521875 675.98224609 -390.8521875 675.98224609 -390 676 C-424.54876301 689.40441908 -460.10987065 698.79324938 -497.46875 697.87890625 C-498.5334552 697.85615631 -499.5981604 697.83340637 -500.69512939 697.80996704 C-505.05809912 697.71123455 -509.41912357 697.60586701 -513.77978516 697.4309082 C-529.55195637 696.83171167 -543.3641057 698.28254237 -557 707 C-557.33 707.66 -557.66 708.32 -558 709 C-547.78702791 714.0794676 -536.8323297 716.6942437 -525.75 719.125 C-525.04955566 719.28355469 -524.34911133 719.44210937 -523.62744141 719.60546875 C-508.952535 722.69834254 -494.20434086 723.30788345 -479.25927734 723.20581055 C-476.50218393 723.18751449 -473.74542932 723.18530232 -470.98828125 723.18554688 C-454.48559231 723.15482691 -438.34286294 722.39381971 -422 720 C-419.06092596 719.59771499 -416.12024322 719.2076917 -413.1796875 718.81640625 C-411.64929006 718.61058688 -410.11893562 718.40444751 -408.58862305 718.19799805 C-406.20192329 717.87614505 -403.81520211 717.55446017 -401.42837524 717.23355103 C-389.81054502 715.67186192 -389.81054502 715.67186192 -378.20703125 714.0078125 C-377.25135254 713.86657959 -376.29567383 713.72534668 -375.31103516 713.57983398 C-373.63672922 713.32945155 -371.96313228 713.07424837 -370.29052734 712.81274414 C-365.4729349 712.09047676 -360.87301301 711.89538164 -356 712 C-370.80964978 718.00962374 -385.67193345 723.46179966 -401 728 C-401.6899707 728.20463867 -402.37994141 728.40927734 -403.09082031 728.62011719 C-425.33246247 735.11245593 -448.98784943 739.28051136 -472.19140625 738.984375 C-489.22497328 738.17332818 -489.22497328 738.17332818 -503.6875 745.875 C-505.5648674 747.85125343 -507.2687727 749.88818884 -509 752 C-510.33092177 753.00320737 -511.66329339 754.00451358 -513 755 C-513 755.66 -513 756.32 -513 757 C-470.84128216 771.01461465 -427.74909142 771.37183868 -384 766 C-382.47009588 765.81993996 -380.94015484 765.64019302 -379.41015625 765.4609375 C-376.34957431 765.08823505 -373.29361662 764.69130048 -370.23730469 764.28564453 C-367.37133073 763.91973559 -364.50234178 763.58297331 -361.6328125 763.24609375 C-359.9319751 763.0459668 -359.9319751 763.0459668 -358.19677734 762.84179688 C-355.93949515 762.57702429 -353.68201423 762.31393917 -351.42431641 762.05273438 C-349.87623291 761.87000977 -349.87623291 761.87000977 -348.296875 761.68359375 C-347.37229492 761.57587646 -346.44771484 761.46815918 -345.49511719 761.35717773 C-343.05431875 761.05562915 -343.05431875 761.05562915 -340.93457031 760.46118164 C-338.80709783 759.95401411 -336.93328256 759.90111196 -334.75 759.9375 C-332.89375 759.9684375 -332.89375 759.9684375 -331 760 C-353.00469821 769.79513328 -375.39808559 778.50995192 -399.625 780.625 C-409.19694257 782.04047028 -416.49845867 791.42661844 -423 798 C-418.83804457 800.25360784 -415.07112517 801.62288887 -410.4375 802.5625 C-408.79587891 802.90474609 -408.79587891 802.90474609 -407.12109375 803.25390625 C-405.74818129 803.50690429 -404.37435633 803.75496673 -403 804 C-402.07445312 804.17354004 -401.14890625 804.34708008 -400.1953125 804.52587891 C-392.17120443 805.91476198 -384.29883316 806.31123528 -376.17138672 806.26074219 C-374.13348406 806.25004454 -372.09646959 806.26069771 -370.05859375 806.2734375 C-357.79998178 806.28717641 -345.84871554 804.83773761 -333.875 802.1875 C-332.70928467 801.93528687 -332.70928467 801.93528687 -331.52001953 801.67797852 C-325.29333793 800.31647184 -319.08099871 798.89012015 -312.875 797.4375 C-312.02276855 797.23987061 -311.17053711 797.04224121 -310.29248047 796.83862305 C-305.46078679 795.68783595 -300.77371444 794.32082625 -296.07666016 792.70727539 C-286.57560472 789.47137631 -276.7942543 787.14757735 -267 785 C-276.39841741 792.5424898 -286.01152045 798.42313397 -296.96508789 803.49902344 C-303.87647237 806.85782711 -307.80596075 810.59151955 -312 817 C-313.09634766 818.59134766 -313.09634766 818.59134766 -314.21484375 820.21484375 C-314.78332031 821.11332031 -315.35179687 822.01179688 -315.9375 822.9375 C-316.52402344 823.85402344 -317.11054687 824.77054688 -317.71484375 825.71484375 C-319.16339683 827.85358034 -319.16339683 827.85358034 -319 830 C-302.0172356 836.41147061 -282.11379268 833.71081866 -265.875 826.43359375 C-257.65118858 822.3328617 -251.52107217 817.86061139 -245.55859375 810.8671875 C-236.19085182 800.36959578 -225.21775523 791.43104164 -214 783 C-213.39687988 782.53996582 -212.79375977 782.07993164 -212.17236328 781.60595703 C-162.83158224 744 -162.83158224 744 -143 744 C-143.87398437 744.49886719 -144.74796875 744.99773438 -145.6484375 745.51171875 C-177.55482186 764.02437603 -209.0148317 789.60536506 -233.015625 817.6796875 C-234.5295273 819.44988034 -236.06476703 821.20184782 -237.609375 822.9453125 C-266.77524904 856.04238924 -290.34291321 895.45221428 -307.4375 936.0625 C-307.72616943 936.74046631 -308.01483887 937.41843262 -308.31225586 938.11694336 C-309.88126154 941.96933694 -309.88126154 941.96933694 -309 946 C-308.3922876 945.70343506 -307.7845752 945.40687012 -307.15844727 945.10131836 C-294.59117094 938.98517286 -282.00912977 933.11634231 -269 928 C-274.08937248 932.46921054 -279.34103522 936.57351599 -284.8125 940.5625 C-285.63999756 941.16892334 -286.46749512 941.77534668 -287.32006836 942.40014648 C-295.10914159 948.10009987 -302.93274707 953.75225544 -310.76611328 959.39111328 C-314.51359769 962.09012118 -318.25661201 964.79531494 -322 967.5 C-326.48610379 970.74131453 -330.97304831 973.98141954 -335.46484375 977.21484375 C-359.66312073 994.64320732 -383.81666726 1012.23077381 -407 1031 C-407.83660156 1031.67289063 -408.67320312 1032.34578125 -409.53515625 1033.0390625 C-415.01680455 1037.47927835 -420.40600606 1042.02075061 -425.75 1046.625 C-426.67075317 1047.4142688 -426.67075317 1047.4142688 -427.61010742 1048.21948242 C-431.38636231 1051.49094754 -434.95159886 1054.90739304 -438.45947266 1058.46435547 C-440.1655676 1060.16504282 -441.95168633 1061.72102443 -443.8125 1063.25 C-450.83595989 1069.31509305 -456.99991153 1076.19022879 -462 1084 C-458.22552488 1082.56740924 -454.70999674 1080.85940492 -451.1484375 1078.9609375 C-449.50101563 1078.09082031 -449.50101563 1078.09082031 -447.8203125 1077.203125 C-445.5141049 1075.97942301 -443.20942615 1074.75283558 -440.90625 1073.5234375 C-439.81054688 1072.9459375 -438.71484375 1072.3684375 -437.5859375 1071.7734375 C-436.5861084 1071.24153809 -435.5862793 1070.70963867 -434.55615234 1070.16162109 C-432 1069 -432 1069 -429 1069 C-438.00232959 1079.75888171 -447.99631777 1089.9633609 -459.0234375 1098.6484375 C-461.31149011 1100.45605912 -463.55654659 1102.28981066 -465.7890625 1104.1640625 C-477.09832918 1113.64224154 -488.71351169 1122.80900779 -501 1131 C-501 1131.66 -501 1132.32 -501 1133 C-494.97250748 1135.00916417 -487.48335329 1135.32802844 -481.5 1133.046875 C-479.12653604 1131.52855614 -477.09917504 1129.882019 -475 1128 C-474.06671875 1127.1646875 -473.1334375 1126.329375 -472.171875 1125.46875 C-470.10680586 1123.59439528 -468.06551486 1121.69674803 -466.03125 1119.7890625 C-462.46305887 1116.46765616 -458.69265945 1113.42090431 -454.89453125 1110.3671875 C-452.23716482 1108.19395665 -449.64462708 1105.96605324 -447.05908203 1103.70898438 C-439.01428804 1096.70099498 -430.60929325 1090.29465729 -422 1084 C-421.19788086 1083.40880371 -420.39576172 1082.81760742 -419.56933594 1082.20849609 C-417.09216394 1080.38308489 -414.60962615 1078.56524858 -412.125 1076.75 C-411.34543945 1076.17644775 -410.56587891 1075.60289551 -409.76269531 1075.01196289 C-409.03920898 1074.48723389 -408.31572266 1073.96250488 -407.5703125 1073.421875 C-406.60762451 1072.71949707 -406.60762451 1072.71949707 -405.62548828 1072.00292969 C-404 1071 -404 1071 -402 1071 C-419.30050821 1092.4071945 -438.01255596 1112.18865633 -457.4909668 1131.62133789 C-459.96728543 1134.09189645 -462.43899692 1136.5670086 -464.90946865 1139.04341221 C-467.31090454 1141.44935353 -469.71616701 1143.85145426 -472.12109375 1146.25390625 C-473.43224403 1147.56809288 -473.43224403 1147.56809288 -474.7698822 1148.90882874 C-479.68857418 1153.8088831 -484.71890828 1158.49397813 -490 1163 C-491.83769132 1164.62006998 -493.67176829 1166.24426246 -495.5 1167.875 C-496.78390625 1169.01582031 -496.78390625 1169.01582031 -498.09375 1170.1796875 C-498.7228125 1170.78039063 -499.351875 1171.38109375 -500 1172 C-500 1172.33 -500 1172.66 -500 1173 C-493.50951491 1173.39737664 -488.81055447 1172.41389973 -483.87915039 1168.1784668 C-481.55576732 1165.91387767 -479.30026844 1163.59918476 -477.0625 1161.25 C-472.15104813 1156.16775124 -467.23789954 1151.23918084 -461.86889648 1146.63964844 C-458.93600006 1144.06651553 -456.22532534 1141.28930208 -453.5 1138.5 C-449.40796669 1134.35613152 -445.26627622 1130.37702698 -440.82421875 1126.60546875 C-438.79194494 1124.81689372 -436.89942105 1122.92881247 -435 1121 C-431.91416001 1117.87245947 -428.718757 1114.96617743 -425.38671875 1112.10546875 C-422.87975162 1109.89392164 -420.44221058 1107.61990721 -418.00537109 1105.33178711 C-412.35137837 1100.02329086 -406.61468184 1094.94174547 -400.5546875 1090.09375 C-398.07262691 1088.05952297 -395.72533297 1085.93414781 -393.375 1083.75 C-388.85862514 1079.63298304 -384.1021496 1075.89534321 -379.25 1072.1875 C-378.5286084 1071.63610352 -377.8072168 1071.08470703 -377.06396484 1070.51660156 C-373.12612891 1067.53430343 -369.1429205 1064.69029272 -365 1062 C-365.52207031 1062.63164063 -366.04414062 1063.26328125 -366.58203125 1063.9140625 C-370.47015807 1068.63973678 -374.31371366 1073.38543336 -378.06030273 1078.22363281 C-382.72757247 1084.2436744 -387.5564377 1089.97001209 -392.73828125 1095.55859375 C-394.67936659 1097.65389313 -396.56984102 1099.77704888 -398.4375 1101.9375 C-403.18343024 1107.38980125 -408.09211596 1112.69389511 -413 1118 C-413.85899902 1118.9288501 -413.85899902 1118.9288501 -414.73535156 1119.87646484 C-420.7713514 1126.39449498 -426.80226847 1132.89320079 -433.14712524 1139.11358643 C-434.90797587 1140.90631014 -436.53633118 1142.75543693 -438.16162109 1144.67089844 C-442.19649086 1149.30982091 -446.55720374 1153.55895406 -450.9765625 1157.828125 C-452.71838285 1159.53289944 -454.45923659 1161.23866195 -456.19921875 1162.9453125 C-458.89539987 1165.58648938 -461.59599776 1168.22205631 -464.31396484 1170.84082031 C-476.34384456 1182.44995162 -487.03614479 1194.16955792 -495 1209 C-495 1209.33 -495 1209.66 -495 1210 C-484.03289482 1210.46412514 -474.9213419 1209.90314631 -466 1203 C-464.0602261 1200.67212903 -462.44341996 1198.17548121 -460.8125 1195.625 C-455.58930816 1187.74882974 -449.94428963 1180.34107257 -444 1173 C-443.25105469 1172.06800781 -442.50210937 1171.13601563 -441.73046875 1170.17578125 C-432.97453163 1159.3689039 -423.88889965 1148.86943966 -414.4453125 1138.66015625 C-412.44839207 1136.48778754 -410.49171266 1134.29460837 -408.5625 1132.0625 C-399.23758249 1121.33376817 -389.33435019 1111.19669966 -379.25 1101.1875 C-378.05184464 1099.99438027 -376.85392698 1098.8010218 -375.65625 1097.60742188 C-372.77354896 1094.73553873 -369.88771056 1091.8668456 -367 1089 C-371.94386169 1097.7647073 -377.01552184 1106.41788532 -382.375 1114.9375 C-383.0256543 1115.97455078 -383.67630859 1117.01160156 -384.34667969 1118.08007812 C-389.42720657 1126.14959385 -394.62614657 1134.12343511 -400 1142 C-400.63252686 1142.93320068 -400.63252686 1142.93320068 -401.27783203 1143.88525391 C-413.01273532 1161.19456187 -425.1985942 1178.19132223 -438.375 1194.4375 C-439.096875 1195.33210938 -439.81875 1196.22671875 -440.5625 1197.1484375 C-442.36625662 1199.25860149 -444.17023933 1201.20575202 -446.125 1203.1640625 C-457.15563037 1214.51221627 -458.18193719 1225.64146877 -458 1241 C-441.15039565 1235.8629255 -419.92899659 1222.76325821 -410 1208 C-408.93199195 1205.6076904 -407.94091748 1203.23641005 -406.99609375 1200.796875 C-406.71630173 1200.0897084 -406.4365097 1199.38254181 -406.14823914 1198.65394592 C-405.54945354 1197.1390253 -404.9533459 1195.62304393 -404.35968018 1194.10610962 C-402.81047347 1190.14798852 -401.24208786 1186.19747196 -399.67578125 1182.24609375 C-399.36433167 1181.4588945 -399.05288208 1180.67169525 -398.73199463 1179.86064148 C-395.93865392 1172.81253342 -393.0551371 1165.80495881 -390.125 1158.8125 C-389.70275146 1157.80477539 -389.28050293 1156.79705078 -388.84545898 1155.75878906 C-387.89912463 1153.50494243 -386.95094492 1151.25190431 -386 1149 C-387.0405207 1153.6252584 -388.08231235 1158.25022967 -389.125 1162.875 C-389.28206421 1163.57172821 -389.43912842 1164.26845642 -389.60095215 1164.98629761 C-391.7884194 1174.68515366 -394.00340957 1184.3771351 -396.25 1194.0625 C-398.25099332 1202.69162021 -400.20208809 1211.32586358 -402 1220 C-399.64020639 1218.02547881 -397.31206778 1216.02932971 -395 1214 C-394.45988281 1213.53980469 -393.91976563 1213.07960938 -393.36328125 1212.60546875 C-370.19159185 1191.34137606 -361.45207623 1157.3045806 -352.54174805 1128.40332031 C-352.31311569 1127.66211945 -352.08448334 1126.92091858 -351.84892273 1126.15725708 C-351.4175484 1124.75540746 -350.98802622 1123.35298616 -350.56062317 1121.94992065 C-349.10837097 1117.21674194 -349.10837097 1117.21674194 -348 1115 C-344.64644239 1130.64993553 -346.48111186 1147.7729006 -350.22265625 1163.1484375 C-350.93213794 1166.66375883 -351.00137648 1167.78864313 -350 1171 C-337.45340256 1161.92373802 -328.7537846 1150.22762658 -321 1137 C-320.60844727 1136.33210449 -320.21689453 1135.66420898 -319.81347656 1134.97607422 C-307.24485248 1113.14555914 -299.22454445 1089.03167512 -292 1065 C-291.7613623 1064.21238281 -291.52272461 1063.42476562 -291.27685547 1062.61328125 C-288.90984673 1055.42754286 -288.90984673 1055.42754286 -288 1048 C-287.00033203 1047.76216797 -287.00033203 1047.76216797 -285.98046875 1047.51953125 C-270.49192998 1043.5986564 -256.47809525 1036.15925927 -245 1025 C-247.98907257 1021.81808403 -251.07348407 1019.13115558 -254.5625 1016.5 C-257.90233346 1013.95616018 -260.57879906 1011.473897 -263 1008 C-262.3618335 1008.17523193 -261.72366699 1008.35046387 -261.06616211 1008.53100586 C-253.57537903 1010.58163037 -246.07427353 1012.59018228 -238.5625 1014.5625 C-237.42490234 1014.86607422 -236.28730469 1015.16964844 -235.11523438 1015.48242188 C-215.7608086 1020.55012378 -198.49808051 1021.30163838 -179 1017 C-178.10023438 1016.80664062 -177.20046875 1016.61328125 -176.2734375 1016.4140625 C-161.8590056 1012.70198472 -148.41982553 1003.91049969 -137.13670349 994.43525696 C-134.67367957 992.78080549 -132.83759546 992.33915678 -129.92211914 991.83666992 C-128.90908218 991.65605515 -127.89604523 991.47544037 -126.85231018 991.28935242 C-125.75764938 991.10492081 -124.66298859 990.9204892 -123.53515625 990.73046875 C-122.39203476 990.52698318 -121.24891327 990.32349762 -120.07115173 990.11384583 C-115.1955095 989.24632456 -110.31556768 988.40420353 -105.43579102 987.56030273 C-77.16415888 982.64040429 -49.35695629 975.8097679 -24 962 C-23.39994141 961.67918457 -22.79988281 961.35836914 -22.18164062 961.02783203 C-8.83836393 953.86509708 2.93316236 945.33162815 14 935 C15.37042476 933.80722289 16.74520119 932.61942068 18.125 931.4375 C68.95577455 887.05006307 95.09733974 817.85553334 116.5625 755.71484375 C153.77962834 647.99210147 153.77962834 647.99210147 191 608 C191.62390625 607.32195313 192.2478125 606.64390625 192.890625 605.9453125 C207.30208901 590.86777242 224.87238546 580.20084504 246.15625 579.63671875 C248.60422484 579.63802503 251.05223985 579.65505355 253.5 579.6875 C254.71558594 579.68427734 255.93117188 579.68105469 257.18359375 579.67773438 C265.29257209 579.72533243 273.02576829 580.56850539 281 582 C282.99970977 582.33507007 284.99962943 582.66889777 287 583 C285.19955042 571.67717263 276.27408011 562.2818812 267.26171875 555.73779297 C261.05745564 551.07199723 261.05745564 551.07199723 254 549 C253.63068359 547.72382812 253.63068359 547.72382812 253.25390625 546.421875 C251.89347288 542.70929049 250.08717034 539.54075148 247.9375 536.25 C247.34086548 535.33420166 247.34086548 535.33420166 246.73217773 534.39990234 C234.2666363 515.69300003 218.47468313 506.0587325 196.79760742 501.48950195 C170.70477757 496.49228086 146.03717369 502.54188316 124 517 C114.5867797 523.45414811 106.20854208 531.10219137 98 539 C97.50725586 539.47083008 97.01451172 539.94166016 96.50683594 540.42675781 C90.64687122 546.05027472 85.31562194 551.89076301 80.25390625 558.23828125 C77.09019376 562.11478858 73.71310036 565.77752579 70.32421875 569.45703125 C68.39894094 571.56351167 66.53405819 573.7001648 64.6875 575.875 C56.30263495 585.48306889 47.09330276 594.2104468 37 602 C36.04480469 602.74894531 35.08960938 603.49789062 34.10546875 604.26953125 C16.00970795 618.1911716 -13.14784184 637 -37 637 C-35.92105469 636.42894531 -34.84210937 635.85789062 -33.73046875 635.26953125 C-12.38039628 623.79278391 6.63317342 609.52451085 24.94140625 593.7265625 C25.41263916 593.32002441 25.88387207 592.91348633 26.36938477 592.49462891 C26.90748779 592.00140137 27.44559082 591.50817383 28 591 C29.26432106 589.97969696 29.26432106 589.97969696 30.55418396 588.93878174 C33.68867202 585.1725229 33.75050541 582.17924317 33.76367188 577.48486328 C33.78574172 576.63018998 33.80781157 575.77551668 33.83055019 574.89494419 C33.89908289 572.03673822 33.93342926 569.17910639 33.96875 566.3203125 C34.01264707 564.27678602 34.05905795 562.23331221 34.10780334 560.18989563 C34.20893084 555.80056917 34.29652303 551.41126862 34.37356567 547.02145386 C34.58128739 535.33970343 34.88511623 523.66018785 35.18359375 511.98046875 C35.21344801 510.78457941 35.24330227 509.58869007 35.2740612 508.35656166 C35.90300979 483.38149492 37.04025251 458.4442956 38.39651489 433.49910736 C38.56115327 430.46234051 38.72306328 427.42543916 38.88427734 424.38848877 C40.78923127 388.62858308 40.78923127 388.62858308 42.2741394 373.74975586 C43.00775795 366.3419398 43.48169773 358.92496207 43.94921875 351.49609375 C44.92005852 336.31765791 46.31011203 321.19640665 47.8125 306.0625 C47.94499526 304.71615248 48.0773169 303.36978787 48.20947266 302.02340698 C49.12668948 292.68095436 50.05928108 283.34011531 51 274 C51.17012604 272.30617188 51.17012604 272.30617188 51.34368896 270.578125 C53.80444678 246.11532447 56.5825286 221.7112194 59.76293945 197.33129883 C61.02083797 187.68595916 62.25182713 178.03959827 63.38671875 168.37890625 C63.4975882 167.43577072 63.60845764 166.49263519 63.72268677 165.5209198 C64.24246819 161.08518735 64.75644647 156.64885463 65.26367188 152.21166992 C66.27412662 143.46952414 67.46848272 134.78613069 68.88313293 126.10012817 C70.14619115 118.2736287 71.11956695 110.41974934 72.07827759 102.55117798 C73.83529002 88.18480493 75.87345213 73.92090393 78.47607422 59.68212891 C78.77602295 58.03929932 78.77602295 58.03929932 79.08203125 56.36328125 C79.25968018 55.41751221 79.4373291 54.47174316 79.62036133 53.49731445 C80.10019472 50.76190653 80.10019472 50.76190653 80 47 C64.78420638 54.08955659 55.35107053 71.71674291 48 86 C47.49605713 86.95519531 47.49605713 86.95519531 46.98193359 87.9296875 C32.34863408 115.89776849 22.06156427 150.06159727 24.7890625 181.67578125 C25.21840519 188.44190396 25.10031876 195.22318751 25.0625 202 C25.05769895 203.39973851 25.05321461 204.79947814 25.04907227 206.19921875 C25.03730421 209.46619487 25.02103311 212.7330726 25 216 C7.91081558 163.38969357 -1.05367024 107.57921638 -8.1875 52.8125 C-8.36631331 51.45374666 -8.54534962 50.09502264 -8.72460938 48.73632812 C-9.15190862 45.49116357 -9.57703701 42.24573205 -10 39 C-10.66 39 -11.32 39 -12 39 Z " fill="#053145" transform="translate(1220,365)"/>
<path d="M0 0 C3.63741179 3.08517541 7.04528199 6.37050592 10.41943359 9.73974609 C11.08845703 10.39716797 11.75748047 11.05458984 12.44677734 11.73193359 C17.98347682 17.58250493 21.64148723 24.68757955 25.41943359 31.73974609 C26.02851562 32.84576172 26.02851562 32.84576172 26.64990234 33.97412109 C27.41943359 35.73974609 27.41943359 35.73974609 27.41943359 38.73974609 C28.56798828 38.69333984 29.71654297 38.64693359 30.89990234 38.59912109 C47.19281103 38.1360743 60.59297556 41.48812438 73.36865234 52.21630859 C80.69035205 59.14844992 87.88602854 67.45471218 89.41943359 77.73974609 C90.48484375 77.50191406 90.48484375 77.50191406 91.57177734 77.25927734 C101.8340108 75.38701802 111.63236791 76.81833036 120.70458984 82.06005859 C129.21825135 88.06391237 135.54794622 95.93978863 138.00146484 106.16552734 C139.70527833 116.65910757 138.33599349 127.11629797 132.87646484 136.34912109 C127.20822663 144.079716 119.61792427 149.88619437 110.41943359 152.73974609 C105.98568065 153.2940791 101.59915244 153.27596775 97.13537598 153.24095154 C95.80170618 153.24484983 94.46804054 153.2504945 93.13438463 153.25772244 C89.4892364 153.27241954 85.8445227 153.26233048 82.19938874 153.24798572 C78.26066652 153.23684688 74.32200381 153.24882813 70.38328552 153.25782776 C62.67511608 153.27174246 54.96711075 153.26421715 47.25894916 153.24915218 C38.27789608 153.23226935 29.29688361 153.23550522 20.31581956 153.23924626 C4.28863826 153.2451216 -11.73846442 153.23096607 -27.765625 153.20629883 C-43.30894925 153.18237903 -58.85216846 153.175295 -74.39550781 153.18579102 C-91.3310744 153.19720672 -108.26659244 153.19912221 -125.20215845 153.18469292 C-127.0088822 153.18316712 -128.81560595 153.18164676 -130.62232971 153.18013191 C-131.51121603 153.1793741 -132.40010235 153.17861628 -133.31592461 153.17783551 C-139.57255715 153.17309773 -145.82916797 153.17494053 -152.08580017 153.17919731 C-159.71307919 153.18412986 -167.34025901 153.17811339 -174.96751535 153.15830301 C-178.85725231 153.14844824 -182.74683838 153.14330622 -186.63658333 153.15119553 C-190.20072428 153.1582764 -193.76456142 153.15139196 -197.32866246 153.1335919 C-199.22139575 153.1276615 -201.11415764 153.13634803 -203.00687742 153.14563841 C-214.88437165 153.05751109 -223.63809859 149.97123829 -232.52587891 141.99365234 C-240.5553924 133.63392076 -243.40734816 123.90034671 -243.31079102 112.53759766 C-242.74959411 101.79436152 -237.66713404 92.56225979 -229.68603516 85.35302734 C-219.98906755 77.92288333 -210.66073327 76.08221802 -198.58056641 76.73974609 C-196.90677893 77.03525305 -195.23614063 77.35508666 -193.58056641 77.73974609 C-193.43361328 77.19447266 -193.28666016 76.64919922 -193.13525391 76.08740234 C-191.27145982 69.8211981 -188.45343032 64.97657493 -184.58056641 59.73974609 C-183.85869141 58.72912109 -183.13681641 57.71849609 -182.39306641 56.67724609 C-174.26340282 47.3268343 -161.70523774 40.838169 -149.58056641 38.73974609 C-146.40657214 38.52594856 -143.25972759 38.54743486 -140.08056641 38.61474609 C-138.84693359 38.62828125 -138.84693359 38.62828125 -137.58837891 38.64208984 C-135.58564558 38.66537744 -133.58306487 38.70123651 -131.58056641 38.73974609 C-131.46841797 38.03205078 -131.35626953 37.32435547 -131.24072266 36.59521484 C-129.03255847 27.04392479 -123.01989092 18.90699425 -116.58056641 11.73974609 C-115.36046875 10.37849609 -115.36046875 10.37849609 -114.11572266 8.98974609 C-84.87922998 -21.92108317 -33.93503702 -27.05787166 0 0 Z " fill="#D0E8F3" transform="translate(575.58056640625,1101.26025390625)"/>
<path d="M0 0 C1.02287109 0.65935547 1.02287109 0.65935547 2.06640625 1.33203125 C5.27704234 3.15751941 8.4771513 4.39864013 11.9375 5.6875 C25.46356556 10.96389612 36.31589812 18.26034912 47 28 C47.99773437 28.87398437 47.99773437 28.87398437 49.015625 29.765625 C59.47538894 39.44335051 66.05653451 52.27508695 72 65 C72.33 65.66 72.66 66.32 73 67 C74.23234375 67.03738281 75.4646875 67.07476563 76.734375 67.11328125 C99.60805351 67.95608103 119.19112979 74.13199445 135.421875 91.03515625 C141.50790022 98.03408525 150 108.21400803 150 118 C150.85464844 117.67773438 151.70929688 117.35546875 152.58984375 117.0234375 C164.54323338 113.43605138 177.01934098 116.73110613 187.8125 122.3125 C198.74728597 128.92934489 206.30988051 138.59840465 210.33984375 150.79296875 C212.90458276 163.2524405 211.76184964 176.63140285 205.421875 187.7734375 C197.82274858 199.17212712 187.66871945 207.96711138 174 211 C168.55479857 211.4338814 163.12299278 211.39701771 157.66537476 211.36749268 C156.00029952 211.36951878 154.33522545 211.3728602 152.67015517 211.37739825 C148.10909529 211.38602537 143.54823991 211.37600032 138.98719788 211.36285591 C134.06283661 211.35194018 129.13849385 211.3583737 124.21412659 211.36264038 C114.57355595 211.36826977 104.93306494 211.35796671 95.29250787 211.34235242 C84.06604041 211.32480568 72.83958834 211.32339301 61.61310931 211.32273683 C41.58385255 211.32104926 21.55463204 211.30523971 1.52539062 211.28125 C-17.91178691 211.25798632 -37.34894146 211.24382431 -56.78613281 211.24023438 C-57.9835697 211.24001161 -59.18100658 211.23978884 -60.41472943 211.23955932 C-62.82698405 211.23911672 -65.23923866 211.2386747 -67.65149327 211.23823325 C-68.8414307 211.23801369 -70.03136813 211.23779412 -71.25736427 211.2375679 C-72.44429075 211.23735192 -73.63121723 211.23713593 -74.85411117 211.2369134 C-93.37657414 211.23321255 -111.89903339 211.22185343 -130.42149229 211.2094375 C-137.1353586 211.20500296 -143.84922457 211.20156439 -150.56309177 211.19881538 C-161.21124696 211.1943827 -171.85938845 211.18660826 -182.507535 211.17204097 C-187.37315741 211.1654355 -192.23876777 211.16036829 -197.10439491 211.15958023 C-201.55776655 211.15879301 -206.01110769 211.15338349 -210.46446984 211.14426073 C-212.07602223 211.14175378 -213.68757827 211.1409189 -215.2991323 211.14191952 C-217.48945867 211.14301691 -219.67968972 211.13798353 -221.87000465 211.13142776 C-223.0866863 211.13018127 -224.30336795 211.12893477 -225.55691874 211.1276505 C-229.09890457 210.99633316 -232.50277148 210.56308968 -236 210 C-236 209.67 -236 209.34 -236 209 C-235.25242432 208.87995605 -234.50484863 208.75991211 -233.73461914 208.63623047 C-181.33151762 200.13497188 -131.21215028 185.61289002 -91.71875 148.53125 C-89.42087037 146.39184482 -87.08341193 144.3398101 -84.6875 142.3125 C-80.71798932 138.85544664 -77.38194985 135.02323775 -74 131 C-72.79923828 129.63101562 -72.79923828 129.63101562 -71.57421875 128.234375 C-39.86146735 91.897579 -15.22061424 45.66184272 0 0 Z " fill="#CFE7F3" transform="translate(1338,1161)"/>
<path d="M0 0 C1.84462852 3.19534526 2.37117051 5.85687738 2.7109375 9.515625 C2.87348022 11.13416382 2.87348022 11.13416382 3.03930664 12.78540039 C3.15008545 13.92871826 3.26086426 15.07203613 3.375 16.25 C4.45615606 26.51850449 6.19374966 36.07662112 9 46 C9.70589263 48.99314249 10.35562801 51.9929307 11 55 C3.23121789 53.2830748 -4.40990297 51.38713802 -12 49 C-15.05010264 79.02075171 -13.96084047 109.90601623 -4.953125 138.8515625 C-4 142 -4 142 -4 144 C-6.86867231 142.61735163 -9.56024032 141.07851447 -12.25 139.375 C-12.95640625 138.92898438 -13.6628125 138.48296875 -14.390625 138.0234375 C-14.92171875 137.68570313 -15.4528125 137.34796875 -16 137 C-16.26554688 138.15757812 -16.53109375 139.31515625 -16.8046875 140.5078125 C-17.16130764 142.04690993 -17.51808691 143.58597048 -17.875 145.125 C-18.04902344 145.88554688 -18.22304688 146.64609375 -18.40234375 147.4296875 C-18.57636719 148.17734375 -18.75039063 148.925 -18.9296875 149.6953125 C-19.08679199 150.37609863 -19.24389648 151.05688477 -19.40576172 151.75830078 C-20.145814 154.55006743 -21.07864165 157.263375 -22 160 C-34.19641804 160.09293151 -46.39275098 160.16388234 -58.58945179 160.20724869 C-64.25369135 160.22806882 -69.91768756 160.25628443 -75.58178711 160.30175781 C-81.05423543 160.34541455 -86.52645057 160.36917898 -91.99905968 160.37950897 C-94.08052932 160.38686484 -96.16198709 160.40122868 -98.2433567 160.42292023 C-114.14485541 160.58195897 -125.81335078 159.48485501 -137.87109375 148.2578125 C-145.9031211 139.93214114 -148.72218813 130.49228832 -148.52368164 119.15869141 C-147.97545987 107.94356792 -142.84638627 99.24101255 -134.625 91.75 C-126.74742936 85.35383092 -119.2322773 83.82451767 -109.3125 83.875 C-108.54099609 83.87113281 -107.76949219 83.86726562 -106.97460938 83.86328125 C-101.25345092 83.87327454 -101.25345092 83.87327454 -99 85 C-98.95875 84.21625 -98.9175 83.4325 -98.875 82.625 C-95.94220433 70.47484653 -85.39214493 59.48780637 -75 53 C-71.74409747 51.12262622 -68.44735142 49.49562015 -65 48 C-64.26523437 47.67773438 -63.53046875 47.35546875 -62.7734375 47.0234375 C-54.50055273 43.98151767 -45.6744365 44.74486951 -37 45 C-36.896875 44.30132813 -36.79375 43.60265625 -36.6875 42.8828125 C-34.23242428 32.58823363 -26.90935112 23.70467211 -20 16 C-19.44828125 15.36578125 -18.8965625 14.7315625 -18.328125 14.078125 C-13.04241286 8.3737426 -6.44338438 4.27298122 0 0 Z " fill="#CFE7F3" transform="translate(966,660)"/>
<path d="M0 0 C2.66832407 2.40666515 4.28262452 4.98252155 6.046875 8.1015625 C6.63662109 9.13603516 7.22636719 10.17050781 7.83398438 11.23632812 C8.46626953 12.35458984 9.09855469 13.47285156 9.75 14.625 C11.1059165 17.00458856 12.46638165 19.38155437 13.828125 21.7578125 C14.17520508 22.363974 14.52228516 22.9701355 14.87988281 23.59466553 C18.33549401 29.61411082 21.90868616 35.56066542 25.5 41.5 C31.97238947 52.22286327 38.26962259 63.03839262 44.48828125 73.91015625 C46.64713526 77.67772932 48.84243338 81.41521785 51.10546875 85.12109375 C56.37632176 93.8078444 60.49337069 102.33857302 63.95849609 111.89282227 C73.49599038 138.00511571 87.96926774 162.02600311 104.63964844 184.17675781 C106.4970684 186.66620726 108.27399747 189.21076802 110.0625 191.75 C114.08210239 197.27907333 118.54407738 202.39857927 123.0234375 207.5546875 C128.2144716 213.53558882 133.28974252 219.6316145 138 226 C134.55220914 224.49993609 132.17639467 222.49590738 129.4375 219.9375 C126.02544837 216.8031735 122.56787486 213.81523617 118.9375 210.9375 C106.79079918 201.0545793 95.75501693 189.85289431 84.65362549 178.82885742 C83.56819181 177.75147646 82.48128314 176.67557907 81.39276123 175.60131836 C74.44729156 168.7374081 68.07890529 161.65951555 62 154 C61.13676651 152.97231994 60.26837714 151.94890136 59.390625 150.93359375 C23.57527536 109.17080466 -1.99401867 55.77713349 0 0 Z " fill="#FBFBFC" transform="translate(561,568)"/>
<path d="M0 0 C3.20057589 1.4418436 5.99462722 3.32752215 8.87231445 5.32568359 C17.2032166 11.09048157 25.80772856 15.76500779 35 20 C35.86882813 20.40992188 36.73765625 20.81984375 37.6328125 21.2421875 C52.29273337 27.65279696 68.23463294 28.91773956 84 30 C83.67 30.66 83.34 31.32 83 32 C77.34862219 33.49263965 71.42488168 33.11114417 65.625 33.0625 C64.60277344 33.05798828 63.58054687 33.05347656 62.52734375 33.04882812 C60.01816806 33.037103 57.5091151 33.02069176 55 33 C55.67651611 33.48859497 55.67651611 33.48859497 56.36669922 33.98706055 C57.73891315 34.97810394 59.11105797 35.96924302 60.4831543 36.96044922 C62.10391522 38.13073224 63.72518777 39.30030695 65.34692383 40.46923828 C69.37467608 43.37380402 73.39614273 46.28558055 77.39453125 49.23046875 C101.06382283 66.60990525 126.09275165 82.17923239 152 96 C152.81597656 96.43666992 153.63195313 96.87333984 154.47265625 97.32324219 C181.73134749 111.77451018 210.63630973 122.4506287 241 128 C242.7634375 128.32291016 242.7634375 128.32291016 244.5625 128.65234375 C254.9686472 130.33352555 265.48133087 130.62960312 276 131 C270.65649036 136.34350964 260.68973774 135.24355463 253.59060669 135.27575684 C252.06243156 135.27419967 250.53425633 135.26914662 249.00610352 135.26074219 C246.70236595 135.25006887 244.39941634 135.2606623 242.09570312 135.2734375 C233.22153331 135.28219832 224.73730219 134.72205813 216 133 C215.28545654 132.85933105 214.57091309 132.71866211 213.8347168 132.57373047 C172.17157919 123.68835636 133.04232089 101.85984486 99.93310547 75.53173828 C98.0311078 74.02464894 96.11439458 72.53877235 94.19140625 71.05859375 C87.98144991 66.26388762 81.98292818 61.3421148 76.20703125 56.0234375 C74.27869483 54.25551137 72.31152022 52.56153954 70.3125 50.875 C67.57220269 48.54657102 65.13276291 46.0737989 62.73046875 43.40625 C55.29959411 35.29088725 49.70271932 30.67938458 38.9921875 28.0859375 C23.47242917 24.25342994 10.49774514 12.45817714 0 1 C0 0.67 0 0.34 0 0 Z " fill="#093347" transform="translate(898,934)"/>
<path d="M0 0 C3.20057589 1.4418436 5.99462722 3.32752215 8.87231445 5.32568359 C17.2032166 11.09048157 25.80772856 15.76500779 35 20 C35.86882813 20.40992188 36.73765625 20.81984375 37.6328125 21.2421875 C52.29273337 27.65279696 68.23463294 28.91773956 84 30 C83.67 30.66 83.34 31.32 83 32 C77.34862219 33.49263965 71.42488168 33.11114417 65.625 33.0625 C64.60277344 33.05798828 63.58054687 33.05347656 62.52734375 33.04882812 C60.01816806 33.037103 57.5091151 33.02069176 55 33 C55.66 33.66 56.32 34.32 57 35 C54.51601639 34.54000303 52.87911724 33.92369664 50.72265625 32.5625 C47.85207937 30.91511011 45.32021004 30.14585631 42.125 29.3125 C25.19519719 24.26998795 11.83859961 13.92170554 0 1 C0 0.67 0 0.34 0 0 Z " fill="#163D50" transform="translate(898,934)"/>
<path d="M0 0 C2.8100346 1.79363911 4.50940468 3.01880935 6 6 C6.57884232 13.06187625 6.57884232 13.06187625 4.1875 16.9375 C1.35796607 19.60534627 -0.5331709 19.9481301 -4.375 20.375 C-8 20 -8 20 -10.875 17.625 C-14.16087102 13.56598286 -14.44427743 11.24247372 -14 6 C-10.26747896 0.27680107 -6.74763808 -0.96948823 0 0 Z " fill="#073246" transform="translate(1411,891)"/>
<path d="M0 0 C0 4.04863987 -1.29319268 5.01557142 -4 8 C-5.67386269 9.50330323 -7.37861569 10.95190887 -9.12109375 12.375 C-11.53754544 14.46490416 -13.75680335 16.72859361 -16 19 C-17.47448371 20.47603671 -18.94982792 21.95121408 -20.42578125 23.42578125 C-21.22177734 24.22177734 -22.01777344 25.01777344 -22.83789062 25.83789062 C-26.55859375 29.55859375 -30.27929688 33.27929688 -34 37 C-34 34 -34 34 -32.70922852 32.34846497 C-32.10522217 31.75112045 -31.50121582 31.15377594 -30.87890625 30.53833008 C-30.19820068 29.8578511 -29.51749512 29.17737213 -28.81616211 28.47627258 C-28.07245361 27.74804794 -27.32874512 27.0198233 -26.5625 26.26953125 C-25.80783447 25.51911057 -25.05316895 24.76868988 -24.27563477 23.99552917 C-21.85735329 21.59407604 -19.42886229 19.20324651 -17 16.8125 C-15.36129742 15.18883881 -13.7232676 13.56449833 -12.0859375 11.93945312 C-8.06507255 7.95171262 -4.03577035 3.97265181 0 0 Z " fill="#1C4154" transform="translate(853,1453)"/>
<path d="M0 0 C1.1898617 3.56958511 0.71536834 5.03799411 -0.25 8.625 C-0.50265625 9.60726563 -0.7553125 10.58953125 -1.015625 11.6015625 C-1.34046875 12.39304687 -1.6653125 13.18453125 -2 14 C-2.99 14.33 -3.98 14.66 -5 15 C-4.37321829 11.33827525 -3.35548154 8.1181005 -1.9375 4.6875 C-1.39416016 3.36298828 -1.39416016 3.36298828 -0.83984375 2.01171875 C-0.56269531 1.34785156 -0.28554688 0.68398437 0 0 Z " fill="#25485A" transform="translate(834,1511)"/>
<path d="M0 0 C-1.98 1.32 -3.96 2.64 -6 4 C-7.32 3.34 -8.64 2.68 -10 2 C-3.375 -1.125 -3.375 -1.125 0 0 Z " fill="#3E5C6B" transform="translate(1078,1109)"/>
<path d="M0 0 C2.125 0.9375 2.125 0.9375 4 2 C0.5980513 4.09350689 -2.05272412 4.17942163 -6 4 C-4.03617993 2.49440461 -2.21736634 1.10868317 0 0 Z " fill="#2B4D5E" transform="translate(1187,999)"/>
<path d="M0 0 C-0.33 0.66 -0.66 1.32 -1 2 C-4.3 1.67 -7.6 1.34 -11 1 C-11 0.67 -11 0.34 -11 0 C-3.57142857 -1.28571429 -3.57142857 -1.28571429 0 0 Z " fill="#BFD1DB" transform="translate(1113,1370)"/>
</svg>
